<?xml version="1.0" standalone="no"?>
<!DOCTYPE svg PUBLIC "-//W3C//DTD SVG 1.1//EN" "http://www.w3.org/Graphics/SVG/1.1/DTD/svg11.dtd">
<svg xmlns="http://www.w3.org/2000/svg">
<metadata>Copyright (C) 2015 by original authors @ fontello.com</metadata>
<defs>
<font id="saddahaq" horiz-adv-x="1000" >
<font-face font-family="saddahaq" font-weight="400" font-stretch="normal" units-per-em="1000" ascent="850" descent="-150" />
<missing-glyph horiz-adv-x="1000" />
<glyph glyph-name="space" unicode="&#xe800;" d="m975 513c-5 19-20 33-43 45 1 1 1 3 1 5-1 11-11 20-22 20-8 0-14-5-18-11-42 11-97 15-162 12v44c0 54-44 98-97 98h-267c-54 0-98-44-98-98v-149c-157-66-255-147-244-208 9-55 118-78 266-69 18-22 45-37 76-37h218l146-191v330c161 65 259 148 244 209z m-600 75c0 13 14 27 27 27h196c13 0 27-14 27-27v-14c-53-7-109-18-166-32-29-7-57-15-84-24v70z m508-156c-3 4-8 7-13 6-9 0-16-7-16-16 1-4 2-8 5-10-21-16-46-32-75-47-15-8-33-17-53-26v25c79 40 129 85 120 118-7 27-53 41-120 44v25c104 1 173-21 182-55 5-19-7-41-30-64z m-259-155c-26-8-53-15-82-23h-66c21 5 43 10 64 15 29 8 57 16 85 25v-13c0-1-1-2-1-4z m-90-4c-28-7-56-13-85-19h-47c-7 0-14 4-19 10 48 5 100 15 151 28 31 8 62 17 91 27v-20c-29-10-59-18-91-26z m-374 44c8 28 49 63 109 96v-150c0 0 0-1 0-2-50 2-88 11-103 28 4 3 6 8 6 13 0 8-5 13-12 15z m215-36v181c33 12 68 23 104 31 46 12 99 21 146 26v-198c-30-10-63-20-97-28-50-13-100-22-147-27-3 5-6 10-6 15z m356 243c67-3 111-19 118-43 8-31-47-77-114-112-1-1-3-2-4-2v157z m-258-30c-34-9-67-19-98-30v21c32 11 65 21 99 29 50 12 102 22 151 28v-21c-49-5-101-14-152-27z m-204-78c-62-33-104-69-112-98 0 0-1 0-1 0-9-1-16-8-16-17 1-9 8-16 17-15 2 0 5 0 7 2 15-18 54-27 105-29 0-9 2-17 4-25-102-4-177 11-187 48-10 42 67 106 183 160v-26z m197 100c-31-7-62-16-91-26v18c30 9 60 17 92 25 54 13 108 23 158 29v-15c-51-7-105-17-159-31z m-429-243c-15 56 81 134 232 196v-21c-120-55-199-121-190-167 8-40 88-56 196-52 2-6 5-12 9-18-137-9-235 12-247 62z m561-19h-11c10 3 20 6 29 9-5-5-11-9-18-9z m228 106c-28-15-59-30-95-44v18c54 24 99 49 132 75 2-2 5-2 8-2 9 0 16 7 15 16 0 2 0 3-1 5 27 25 40 50 35 71-10 39-85 57-189 56v17c64 2 119-2 160-11 0-12 10-20 22-20 6 0 11 3 15 8 21-10 35-22 39-37 12-46-42-100-141-152z" horiz-adv-x="1000" />
<glyph glyph-name="calendar" unicode="&#xe801;" d="m793 667v60h-27v-60h-99v60h-27v-60h-110v60h-28v-60h-114v60h-27v-60h-109v60h-28v-60h-97v-694h746v694h-80z m55-669h-696v490h696v-490z m0 514h-696v130h72v-63h28v63h109v-63h27v63h114v-63h28v63h110v-63h27v63h99v-63h27v63h55v-130h0z" horiz-adv-x="1000" />
<glyph glyph-name="megaphone" unicode="&#xe802;" d="m871 283l-1 368c0 22-14 32-28 32-15 0-30-11-39-18l-524-214c-25 0-64 0-93 0h-56v-20l0-167 151 0 91-40-34-77 226-104 36 81 212-93c7-5 20-14 32-14 8 0 14 3 19 8 6 6 8 15 7 24l1 234z m-665 129v-106h-37v106c5 0 12 0 18 0h19z m338-317l-155 71 19 43 156-69-20-45z m287-30l-541 238-45 0v109c14 0 27 0 38 0h4l534 218 3 1 3 2c1 2 2 3 4 4l1-354-1-218z" horiz-adv-x="1000" />
<glyph glyph-name="profile-card" unicode="&#xe803;" d="m855 597h-710c-14 0-25-11-25-25v-429c0-14 11-25 25-25h96c5-9 16-15 30-15h22c13 0 25 6 30 15h340c5-9 16-15 29-15h23c13 0 24 6 30 15h110c14 0 25 11 25 25v429c0 14-11 25-25 25z m4-454c0-2-2-4-4-4h-118l-11 0v-10c0-2-4-4-11-4h-23c-6 0-10 2-11 4v10h-366l-11 0v-10c0-2-4-4-11-4h-22c-7 0-11 2-12 4v10h-114c-2 0-4 2-4 4v429c0 2 2 3 4 3h710c2 0 4-1 4-3l0-429 0 0z m-420 208c-5 10-22 16-22 16l-2 1c-11 5-22 8-22 8-2 1-3 2-4 2-5 3-7 4-8 5 7 10 12 21 14 33 3 3 5 7 5 11 3 10 3 18 1 24 3 14 5 37-10 54-2 3-12 14-30 19l-8 3c-14 4-23 5-25 5-2 0-3 0-3 0l-3 0c-5 0-10-2-12-2-5-2-31-14-39-40-2-4-4-15-1-37-4-6-4-14-1-25 1-5 2-9 5-12 2-12 7-23 14-32-5-4-21-12-38-17-14-5-21-14-22-15-19-29-22-89-22-92 1-18 9-23 13-25 42-19 107-22 110-22 0 0 1 0 1 0l1-1 8 1c3 0 67 3 110 22 4 2 12 7 12 25 0 3-2 63-22 91l0 0z m-147 101c-4 22-1 30-1 31 6 17 25 26 27 27 1 0 3 1 4 1l2-1c1 0 3 1 4 1 2 0 9-1 18-4l8-3c14-4 20-11 21-13 10-11 6-31 4-39l-1-5 3-4c0-2 0-5-2-11 0-3-1-4-1-4l-3-3 0-3c-4-21-23-45-42-45-14 0-35 20-38 45l-1 3-2 3c-1 0-1 2-2 5-1 5-2 8-2 9l5 3-1 7z m147-198c-30-13-74-18-92-19l0 0-9-1c-3 0-6 0-9 0 0 0-62 3-100 20-1 1-1 3-1 6 0 15 5 60 18 79 0 0 3 5 11 8 16 5 35 12 45 21 10-8 20-13 31-13 12 0 23 5 33 13 3-3 8-6 14-9 2-1 4-2 7-3 0 0 9-3 20-8l3-1c7-3 11-7 12-8 13-20 17-64 18-79 0-3-1-5-1-6z m91 240h260v-21h-260v21z m0-73h185v-21h-185v21l0 0z m0-139h185v-22h-185v22l0 0z m0 69h260v-21h-260v21z" horiz-adv-x="1000" />
<glyph glyph-name="townhall" unicode="&#xe804;" d="m570 549c40 0 73-33 73-74 0-40-33-73-73-73s-74 33-74 73c0 41 33 74 74 74z m-178-366h320v-205h-320v205z m318 38c15 97-63 145-93 163-1 1-2 1-3 2-8 5-17 9-26 11l-18-18-18 19c0 0 0 0 0 0-9-3-18-6-26-11-2-1-4-2-6-3-11-6-22-7-34-4-15 5-30 17-43 32l-24 30c-9 13-16 25-20 33-7 14-24 20-38 13-14-7-20-24-13-38 3-8 29-59 71-95v0c2 3 4 5 7 7l21 9c3 2 6 2 9 2 8 0 16-5 19-12 3-5 3-11 1-16-2-5-6-10-11-12l-7-3c4-2 7-3 11-4 8-3 17-4 25-5v-100h-98c1 22 5 82 37 111 2-1 5 0 8 1l20 9c6 3 8 9 5 15-2 5-9 8-14 5l-21-10c-3-1-5-4-6-7-38-33-43-99-43-124h-27v-22h406v22h-51v0z m-140 12h-1l-17 24 17 119h1l17-119-17-24z m81-12h-6v61c9-16 12-36 6-61z m-251 328c6 0 17 1 25 2l74-22-15 61c5 8 14 24 14 42 0 46-44 83-98 83-7 0-13 0-20-2-13 6-27 9-42 9-55 0-99-37-99-83 0-46 44-83 99-83 4 0 13 0 20 1 13-5 27-8 42-8z m-139 90c0 34 34 61 77 61 1 0 3 0 5 0-25-15-42-40-42-68 0-20 9-39 24-53-36 5-64 30-64 60z m62-7c0 34 34 61 77 61 42 0 76-27 76-61 0-17-12-33-12-33l-3-4 8-35-42 13-3 0c-6-1-17-2-24-2-43 0-77 27-77 61z" horiz-adv-x="1000" />
<glyph glyph-name="globe" unicode="&#xe805;" d="m874 350c0 96-36 187-101 256-71 75-166 117-269 118-3 2-7 2-10 0-102-1-197-43-267-118-65-69-101-160-101-256 0-98 37-190 105-260 70-72 163-113 263-114 2-1 3-1 5-1 2 0 3 0 5 1 101 1 195 41 265 114 68 70 105 162 105 260z m-114-235c-3 4-7 7-10 10-3 2-5 4-8 7-7 6-15 12-22 17-1 1-1 1-2 2-8 6-17 11-26 17-3 1-5 3-8 4-5 3-9 5-13 8 0 2 1 4 2 6 1 3 2 5 3 8 1 4 3 9 4 13 1 3 2 5 2 8 2 5 3 10 5 14 0 3 1 5 1 7 2 7 4 14 5 21 0 0 0 1 0 1 1 7 3 14 4 21 0 2 0 4 1 7 0 4 1 9 1 14 1 3 1 6 1 9 0 4 1 9 1 14 0 2 0 5 0 8 1 2 1 5 1 7h148c-3-83-34-161-90-223z m-130 32c-4-6-7-11-10-17-2-3-3-5-4-7-5-9-10-16-16-24-1-1-2-3-3-4-4-6-9-12-14-18-2-3-4-5-6-8-4-4-8-9-12-13-3-3-5-5-8-8-4-4-8-8-12-12-3-2-5-4-8-7-4-4-9-7-13-11-3-2-6-4-9-6-1-1-2-1-3-2v186c2 0 3 0 4 0 3 0 5 0 7 0 4-1 8-1 12-1 2-1 4-1 7-1 4-1 8-1 12-2 1 0 3 0 5-1 6-1 11-2 17-3 0 0 1 0 1 0 6-1 12-3 17-4 2-1 4-2 6-2 4-1 8-2 12-4 2-1 4-1 6-2 4-1 7-3 11-4 2-1 4-2 6-3 1 0 3-1 4-1-2-4-3-7-5-11-1-3-3-6-4-10z m-196-92c-4 5-8 9-12 14-2 2-4 5-6 7-6 7-11 14-16 21-1 0-1 1-1 1-6 8-11 16-16 24-1 2-3 5-4 8-4 5-7 11-10 17-2 3-3 6-5 10-1 3-3 7-4 10 1 1 2 1 3 2 3 1 5 2 7 3 4 1 7 2 11 4 2 0 4 1 6 2 4 1 8 2 12 4 2 0 4 1 6 1 5 2 11 3 17 5 1 0 1 0 1 0 6 1 11 2 17 3 2 1 4 1 6 1 4 1 8 1 12 2 2 0 5 0 7 1 4 0 8 0 11 1 3 0 5 0 8 0 1 0 3 0 4 0v-187c-1 1-3 2-4 3-3 2-6 4-9 6-4 4-9 7-13 11-3 2-5 4-8 7-4 4-8 8-12 12-3 2-5 5-8 7z m-99 180c0 2-1 4-1 7-2 6-3 12-5 18 0 1 0 1 0 2-1 6-2 13-3 20-1 2-1 4-1 6-1 5-1 10-2 15 0 2 0 5-1 7 0 5 0 9-1 14 0 2 0 5 0 8 0 2 0 4 0 6h167v-118c-2 0-3 0-5 0-3 0-5 0-8 0-4-1-8-1-12-1-3-1-5-1-8-1-4-1-8-1-13-2-2 0-4 0-6-1-6-1-13-2-19-4-1 0-1 0-2 0-6-1-11-3-17-4-2-1-4-2-6-2-4-2-8-3-12-4-3-1-5-2-7-3-4-1-8-3-12-4-2-1-4-2-7-3-1-1-3-1-4-2-1 2-1 4-2 5-1 3-2 5-3 8-1 4-2 8-4 12 0 3-1 5-2 8-1 4-2 9-4 13z m-14 140c1 5 1 9 1 13 0 2 1 5 1 7 0 5 1 10 2 14 0 2 0 4 0 6 1 7 2 13 4 20 0 0 0 1 0 2 1 6 2 11 4 17 0 2 1 4 1 7 1 4 2 8 4 12 0 3 1 5 2 7 1 4 2 8 4 12 0 3 1 5 2 8 1 1 1 2 2 4 1-1 2-1 4-2 2-1 5-2 7-3 4-1 8-3 12-4 2-1 4-2 7-3 4-1 8-3 12-4 2-1 5-1 7-2 5-2 11-3 16-4 1-1 2-1 3-1 6-1 13-3 19-4 2 0 4 0 6-1 5 0 9-1 14-2 2 0 5 0 7-1 4 0 9 0 13-1 2 0 5 0 8 0 1 0 3 0 5 0v-110h-167c0 2 0 4 0 6 0 2 0 5 0 7z m46 173c3 6 6 12 9 18 2 2 3 5 5 8 5 8 10 16 15 24 1 1 2 2 2 3 5 7 10 14 16 20 2 3 4 5 6 8 4 5 8 9 12 14 3 3 6 5 8 8 4 4 8 8 13 12 2 2 5 5 8 7 4 4 9 8 13 11 3 3 6 5 9 7 2 1 3 2 5 3v-195c-2 0-3 0-5 0-2 0-4 0-7 1-4 0-8 0-12 1-2 0-4 0-7 0-4 1-8 1-12 2-2 0-4 1-6 1-6 1-11 2-17 3 0 0-1 1-1 1-6 1-12 3-18 4-2 1-4 1-5 2-5 1-9 3-13 4-2 1-4 2-6 2-4 2-8 3-11 5-3 1-5 1-7 2-1 1-3 2-4 2 1 4 3 8 5 11 1 4 3 7 5 11z m199 94c5-4 9-9 13-14 2-2 4-5 6-7 5-6 10-13 15-19 1-2 2-3 3-4 5-8 10-17 15-25 2-2 3-5 4-7 4-6 7-13 10-19 2-3 3-6 5-10 2-4 3-7 5-11-1-1-3-2-4-2-2-1-5-2-7-3-4-1-7-3-11-4-2-1-4-2-6-2-4-2-8-3-12-4-2-1-4-1-6-2-6-2-12-3-17-5-1 0-2 0-2 0-5-1-11-2-16-3-2 0-4-1-6-1-4-1-9-1-13-2-2 0-4 0-7 0-3-1-7-1-11-1-3-1-5-1-7-1-2 0-3 0-5 0v194c1-1 3-2 4-3 3-2 6-4 8-6 5-4 9-7 14-11 3-3 5-5 8-8 4-4 9-8 13-12 2-2 5-5 7-8z m98-182c1-2 1-4 2-6 1-6 2-12 3-17 1-1 1-2 1-3 1-6 2-13 3-19 0-2 1-4 1-6 0-5 1-9 2-14 0-2 0-5 0-7 0-4 1-9 1-13 0-2 0-5 0-7 0-2 0-4 0-6h-165v110c2 0 4 0 5 0 3 0 6 0 8 0 4 1 8 1 13 2 2 0 4 0 7 0 4 1 9 1 14 2 1 0 3 1 5 1 7 1 13 2 20 4 0 0 1 0 2 0 5 2 11 3 17 5 2 0 4 1 6 2 4 1 8 2 12 4 3 0 5 1 7 2 4 2 8 3 12 5 2 1 4 2 7 2 1 1 3 2 4 2 0-1 1-3 2-4 0-3 1-5 2-7 1-4 3-8 4-12 0-3 1-5 2-7 1-5 2-9 3-13z m13-136c0-5-1-9-1-13 0-3 0-6-1-8 0-5-1-10-1-14-1-2-1-5-1-7-1-6-2-13-4-20 0-1 0-1 0-2-1-6-3-12-4-18-1-2-1-4-2-7-1-4-2-8-4-13 0-2-1-5-2-7-1-4-2-8-4-12-1-3-2-6-3-8 0-2-1-3-2-5-1 1-2 1-4 2-2 1-4 2-6 2-4 2-8 3-12 5-2 1-5 1-7 2-4 2-8 3-12 4-2 1-4 1-6 2-6 1-11 3-17 4-1 0-1 0-2 1-6 1-12 2-19 3-2 1-4 1-6 1-4 1-8 1-13 2-2 0-5 1-7 1-4 0-8 0-12 1-3 0-5 0-8 0-2 0-3 0-5 0v118h165c0-2 0-4 0-6 0-3 0-6 0-8z m25 38c0 2 0 4 0 6-1 3-1 6-1 9 0 4 0 8-1 12 0 3 0 6-1 9 0 4 0 9-1 13 0 3-1 5-1 8-1 6-2 11-3 17 0 1 0 2 0 3-2 7-3 14-5 21 0 2-1 4-1 6-2 5-3 9-4 14-1 2-2 5-2 7-2 5-3 9-4 13-1 2-2 5-3 8-1 2-1 4-2 6 5 2 9 5 14 8 3 1 5 3 8 4 9 6 18 12 26 18 1 1 2 1 3 2 7 6 15 12 22 18 2 2 5 4 8 7 3 3 6 6 10 9 53-61 83-137 86-218h-148v0z m45 236c-3-3-7-6-10-10-2-2-4-4-7-6-7-6-15-12-22-18-1-1-2-1-3-2-7-5-14-10-22-15-3-1-5-3-8-4-4-2-8-4-11-6-2 4-4 8-6 12-1 3-2 5-4 8-4 9-9 18-14 27-1 1-2 2-2 4-5 7-9 14-14 21-2 3-4 5-6 8-4 6-8 11-12 16-2 3-4 6-6 8-5 6-11 12-16 18-1 1-2 3-4 4-7 7-13 14-21 20-2 2-4 4-6 5-3 4-7 7-11 10 78-10 149-44 205-100z m-302 90c-2-1-4-3-6-5-7-6-14-13-21-20-1-1-2-2-3-3-6-6-11-12-16-19-2-2-4-5-6-7-5-6-9-11-13-17-2-2-3-5-5-8-5-7-10-14-14-21-1-1-2-3-2-4-5-8-10-17-15-26-1-3-2-5-3-8-2-4-4-8-6-13-4 2-7 4-11 6-3 2-5 3-8 5-7 5-15 10-22 15-1 0-1 1-2 1-8 6-15 12-23 19-2 1-4 4-6 6-3 3-7 6-10 9 55 55 126 90 203 99-4-2-7-6-11-9z m-209-108c4-3 7-6 10-9 3-2 5-5 8-7 7-6 14-12 21-17 1-1 2-2 3-3 9-6 17-12 26-17 3-2 5-3 8-5 5-2 9-5 14-7-1-2-2-5-2-7-1-2-2-5-3-7-2-5-3-9-4-13-1-2-2-5-2-8-2-4-3-9-4-14-1-2-1-4-2-6-1-7-3-13-4-20 0-1 0-2-1-3-1-6-2-12-3-18 0-2 0-5 0-7-1-5-2-9-2-14 0-3-1-6-1-8 0-5 0-9-1-13 0-3 0-6 0-9 0-2 0-4 0-6h-147c3 81 33 157 86 218z m61-242c0-2 0-4 0-7 0-3 0-6 0-9 1-4 1-9 1-13 1-3 1-6 1-9 1-5 1-10 2-14 0-3 0-5 1-8 1-6 2-13 3-20 0 0 0-1 1-1 1-7 3-15 4-22 1-2 2-4 2-6 1-5 3-10 4-15 1-2 2-5 3-8 1-4 2-8 4-12 1-3 2-6 3-9 1-2 1-4 2-6-4-2-9-5-13-7-3-2-5-3-8-5-9-5-17-11-25-17-1 0-2-1-2-1-8-6-15-12-22-18-3-2-5-4-8-6-3-3-7-6-10-10-56 62-87 140-90 223h147v0z m-40-240c3 3 6 6 10 9 2 2 4 4 6 6 7 6 15 12 22 17 1 1 1 1 2 1 7 6 14 10 22 15 3 2 5 3 8 5 4 2 7 3 11 5 2-4 4-8 6-12 1-2 2-5 3-7 5-9 9-17 14-26 1-1 2-2 3-3 4-7 8-14 13-21 2-2 4-5 5-7 5-6 9-11 13-17 2-2 4-4 6-7 5-6 11-13 17-19 0 0 1-1 2-2 6-7 13-13 20-19 2-2 4-4 6-5 3-3 6-6 10-8-75 9-144 42-199 95z m295-87c2 1 4 3 6 5 7 6 14 12 21 19 1 1 1 2 2 3 6 6 11 12 17 19 2 2 4 4 6 7 4 5 8 10 12 16 2 2 4 5 5 7 5 7 10 14 14 21 1 1 2 2 2 4 5 8 10 17 15 25 1 3 2 5 3 8 2 4 4 8 6 12 4-2 7-4 11-6 3-1 5-3 8-4 8-5 16-10 23-16 1 0 1 0 1 0 8-6 15-12 23-18 2-2 4-4 6-6 4-3 7-6 10-9-55-54-125-87-201-96 4 3 7 6 10 9z" horiz-adv-x="1000" />
<glyph glyph-name="font" unicode="&#xe806;" d="m871 42c-17 7-32 11-46 13-14 1-25 4-31 10-4 2-9 11-16 26-12 24-22 46-29 66-12 32-22 57-29 74-17 40-32 75-43 106-7 16-25 61-56 133l-92 215-5 10h-24-34l-125-325-107-277c-8-15-15-26-21-30-7-5-23-9-50-14-17-4-29-6-36-8l-1-36h10c26 0 51 2 75 6l21 4c85-6 137-9 157-9 1 3 1 7 1 12 0 9 0 18 0 26-7 1-13 2-19 3-5 1-10 2-13 2-3 1-5 1-6 1-23 3-39 8-46 14-5 4-8 10-8 20 0 6 3 18 10 37 23 63 38 104 47 124l202-1 41-103 21-51c2-5 3-10 3-14 0-5-2-9-5-12-4-3-14-7-31-11l-59-12c-1-10-1-22-1-35l26 1 90 4c16 1 36 1 60 1 29 0 57-1 85-3 34-3 62-4 86-4 1 4 1 8 1 12 0 5-1 14-3 25z m-349 256c-5 0-12 0-24 0-11 0-29 0-53 0-24 1-47 1-69 1l76 202c12-23 25-55 41-94 18-44 32-80 42-109l-13 0z" horiz-adv-x="1000" />
<glyph glyph-name="img-left" unicode="&#xe807;" d="m878 603v-46h-226v46h226z m0-307v-46h-226v46h226z m0 154v-46h-226v46h226z m0-307v-46h-756v46h756z m-304 109h-452v351h452v-351z m-46 306h-359v-261h359v261z" horiz-adv-x="1000" />
<glyph glyph-name="firefox" unicode="&#xe808;" d="m504-137c-216 0-387 126-466 306-87 200-17 521 139 663l-6-156c8 9 68 12 78-1 32 62 136 109 220 110-32-26-106-124-99-174 40-13 103-13 136-15 10-6 8-40-12-68-27-37-97-49-97-49l8-106-77 38c-26-64 35-120 97-110 69 12 94 57 142 54 49-2 68-29 61-54-7-30-59-25-59-25-44-70-103-101-198-93 144-119 338-10 387 87 50 97 7 241-43 283 59-25 99-51 120-108 11 125-46 267-149 350 193-56 311-206 314-445 3-239-211-487-496-487z" horiz-adv-x="1000" />
<glyph glyph-name="signin" unicode="&#xe809;" d="m311 197v-222h513v752h-513v-222h34v188h445v-684h-445v188h-34z m-137 137h436l-94-154h34l103 171-103 171h-34l94-154h-436v-34z" horiz-adv-x="1000" />
<glyph glyph-name="timer" unicode="&#xe80a;" d="m514 348v163c0 9-6 15-15 15s-14-6-14-15v-163c-18-6-30-23-30-41 0-17 12-34 30-40v-47c0-9 5-14 14-14s15 5 15 14v47c17 6 29 23 29 40 0 18-12 35-29 41z m-15-55c-9 0-14 6-14 14s5 15 14 15 15-6 15-15-6-14-15-14z m247 241l35 35 21-20 20 20-61 61-21-20 21-21-35-34c-55 52-131 84-212 87v58h29v29h-88v-29h30v-58c-178-9-320-154-320-335 0-186 148-334 334-334 186 0 334 148 334 334 0 88-31 166-87 227z m-247-532c-169 0-305 137-305 305 0 169 136 306 305 306 169 0 305-137 305-306 0-168-136-305-305-305z" horiz-adv-x="1000" />
<glyph glyph-name="catalog" unicode="&#xe80b;" d="m652 222l226 214-141 148-85-362z m175 216l-112-107 42 180 70-73z m-112 161l-1 1-200 46-1-3 123-381 79 337z m-149-2l105-24-41-176-64 200z m-277-11l7-22 318-318 0 0-129 403-196-63z m56-20l117 37 73-227-190 190z m284-368l1 1 0 0-364 364 0 0-145-146 364-364 144 145z m-363 314l313-313-94-95-313 313 94 95z m220-284c17 0 31-14 31-31s-14-32-31-32-32 14-32 32 14 31 32 31z" horiz-adv-x="1000" />
<glyph glyph-name="info" unicode="&#xe80c;" d="m499-25c-207 0-376 169-376 376 0 208 169 376 376 376 208 0 376-168 376-376 0-207-168-376-376-376z m0 723c-191 0-347-155-347-347 0-191 156-347 347-347 192 0 347 156 347 347 0 192-155 347-347 347z m37-157c0-20-14-36-38-36-21 0-36 16-36 36 0 21 16 37 37 37 23 0 37-16 37-37z m-66-417v325h59v-325h-59z" horiz-adv-x="1000" />
<glyph glyph-name="audio-cas-record" unicode="&#xe80d;" d="m718 511c-89 0-161-72-161-160 0-54 27-102 69-131h-254c42 29 69 77 69 131 0 88-72 160-161 160-88 0-160-72-160-160s72-160 160-160h438c88 0 160 72 160 160 0 88-72 160-160 160z m-569-160c0 72 59 131 131 131 73 0 132-59 132-131s-59-131-132-131c-72 0-131 59-131 131z m569-131c-73 0-131 59-131 131s58 131 131 131c72 0 131-59 131-131 0-72-59-131-131-131z" horiz-adv-x="1000" />
<glyph glyph-name="audio-play" unicode="&#xe80e;" d="m499 731c-210 0-380-170-380-380 0-210 170-380 380-380 210 0 380 170 380 380 0 210-170 380-380 380z m0-709c-182 0-329 147-329 329 0 182 147 329 329 329 182 0 330-147 330-329 0-182-148-329-330-329z m168 346l-195 154c-11 9-29 9-40 0l0 0c-6-4-9-9-9-16v-309c0-7 4-12 9-16l0 0c11-9 29-9 40 0l196 155c11 8 11 22 0 31l-1 1z" horiz-adv-x="1000" />
<glyph glyph-name="audio-record" unicode="&#xe80f;" d="m510 216c71 0 129 58 129 129v256c0 71-58 129-129 129h-22c-71 0-129-58-129-129v-256c0-71 58-129 129-129h22z m-127 129v256c0 58 47 105 105 105h22c58 0 105-47 105-105v-256c0-58-47-105-105-105h-22c-58 0-105 47-105 105z m351-20v28h41c7 0 12 5 12 12v79c0 7-5 12-12 12h-52c-6 0-10-4-11-9h-2v-122c0-106-86-192-192-192h-39c-106 0-192 86-192 192v30c0 1 0 2 0 3v79c0 7-5 12-12 12h-52c-6 0-12-5-12-12v-79c0-7 6-12 12-12h40v-21c0-114 89-207 200-215v-74l-64-16c-5-1-9-6-9-11v-25c0-6 5-12 12-12h193c7 0 12 6 12 12v21c0 6-3 10-8 12l-65 18v75c111 8 200 101 200 215z m1 107h28v-55h-28v55z m-472-63h-28v56h28v-56z m224-260h23v-70h-23v70z m96-113v0h-169v3l61 16c0 0 0 0 0 0h43l65-19z" horiz-adv-x="1000" />
<glyph glyph-name="audio-stop" unicode="&#xe810;" d="m499 730c-209 0-379-170-379-379s170-379 379-379 379 170 379 379-170 379-379 379z m0-711c-183 0-331 149-331 332s148 332 331 332 332-149 332-332-149-332-332-332z m95 474h-190c-26 0-47-21-47-47v-190c0-26 21-47 47-47h190c26 0 47 21 47 47v190c0 26-21 47-47 47z" horiz-adv-x="1000" />
<glyph glyph-name="saddahaq-circle" unicode="&#xe811;" d="m573 527h-146c-10 0-20-10-20-20v-230c0-10 10-20 20-20h146c10 0 20 10 20 20v230c0 10-10 20-20 20z m-73 199c-208 0-376-168-376-376s168-376 376-376 376 168 376 376-168 376-376 376z m173-679l-110 143h-163c-40 0-73 34-73 74v273c0 40 33 73 73 73h200c40 0 73-33 73-73v-490z" horiz-adv-x="1000" />
<glyph glyph-name="saddahaq" unicode="&#xe812;" d="m402 254h196c14 0 27 13 27 27v308c0 13-13 27-27 27h-196c-14 0-27-14-27-27v-308c0-14 13-27 27-27z m187-89l0 0h-223c-53 0-98 44-98 98v366c0 53 45 98 98 98h268c53 0 98-45 98-98v-656l-147 192h4z" horiz-adv-x="1000" />
<glyph glyph-name="img-middle" unicode="&#xe813;" d="m878 603v-46h-756v46h756z m-756-460v-46h756v46h-756z m567 354h-378v-294h378v294z m-46-248h-286v202h286v-202z" horiz-adv-x="1000" />
<glyph glyph-name="img-right" unicode="&#xe814;" d="m348 603v-46h-226v46h226z m0-307v-46h-226v46h226z m0 154v-46h-226v46h226z m530-307v-46l-756 0v46l756 0z m-452 460h452v-351l-452 0v351z m46-306h360v261h-360v-261z" horiz-adv-x="1000" />
<glyph glyph-name="listicle" unicode="&#xe815;" d="m877 331h-754v371h754v-371l0 0z m-38 340h-678v-309h678v309z m-543-313l123 249 143-249h-266z m205 1l-81 142-70-142h151z m202 227c0-34-27-61-60-61-34 0-61 27-61 61s27 61 61 61c33 0 60-28 60-61z m-60 39c-22 0-40-17-40-39s18-39 40-39c21 0 39 17 39 39s-18 39-39 39z m-520-367h747v-27h-747v27z m0-99h682v-27h-682v27z m0-99h732v-27h-732v27z m377 405l38 76 105-179h-31l-70 121-25-48-17 30z" horiz-adv-x="1000" />
<glyph glyph-name="timeline" unicode="&#xe816;" d="m515 605v-188h-29v188h29z m302-351v-188h29v188h-29z m-69 93h-166v-29h166v29z m-591-93v-188h29v188h-29z m-69 82c0-46 37-84 83-84s84 38 84 84c0 46-38 83-84 83s-83-37-83-83z m23 0c0-33 27-60 60-60 33 0 60 27 60 60 0 33-27 60-60 60s-60-27-60-60z m304-3c0-46 37-84 83-84 46 0 84 38 84 84 0 46-38 83-84 83-46 0-83-37-83-83z m23 0c0-33 27-60 60-60 33 0 60 27 60 60 0 33-27 60-60 60-33 0-60-27-60-60z m310 3c0-46 37-84 83-84 47 0 84 38 84 84 0 46-38 83-84 83-46 0-83-37-83-83z m23 0c0-33 27-60 60-60s60 27 60 60c0 33-27 60-60 60-33 0-60-27-60-60z m-356 11h-160v-29h160v29z m585 4h-85v-29h85v29z m-912-1h-88v-29h88v29z" horiz-adv-x="1000" />
<glyph glyph-name="inr" unicode="&#xe817;" d="m732 553c-3 3-7 5-12 5h-90c-6 29-17 55-34 76h123c5 0 9 2 12 5 4 3 5 7 5 12v54c0 5-1 9-5 12-3 3-7 5-12 5h-439c-5 0-9-2-12-5-3-3-5-7-5-12v-70c0-5 2-9 5-12 4-4 7-5 12-5h77c74 0 121-20 141-60h-218c-5 0-9-2-12-5s-5-7-5-12v-54c0-5 2-9 5-12 3-3 7-5 12-5h225c-7-29-25-50-54-66-28-15-66-22-112-22h-59c-5 0-9-2-12-5-3-4-5-8-5-12v-67c0-5 1-9 4-12 68-72 156-172 264-302 3-4 7-6 13-6h103c7 0 12 3 15 10 3 6 3 12-2 18-103 126-184 220-243 283 60 7 109 26 146 58 37 31 60 73 68 123h89c5 0 9 2 12 5 3 3 5 7 5 12v54c0 5-1 9-5 12z" horiz-adv-x="1000" />
<glyph glyph-name="usd" unicode="&#xe818;" d="m692 338c-23 17-57 32-102 43l-35 8v149c1-1 2-2 3-2 1 0 1 0 1-1 30-15 46-39 48-74h119c-2 62-25 109-70 142-28 21-62 36-101 43v83h-110v-80c-51-6-92-23-121-49-39-35-59-79-59-133 0-57 20-100 60-127 22-16 62-30 120-44v-160c-21 6-38 16-49 29-12 15-20 34-23 59h-117c0-60 22-108 66-143 32-25 73-41 123-48v-62h110v60c53 8 96 25 128 51 41 36 61 81 61 136 0 52-17 92-52 120z m-247 77c-17 5-30 9-37 14-19 10-29 26-29 47 0 24 10 42 29 54 11 7 23 12 37 16v-131z m128-276c-5-2-11-4-18-5v137c19-6 34-12 44-18 18-12 27-27 27-47 0-32-18-55-53-67z" horiz-adv-x="1000" />
<glyph glyph-name="call" unicode="&#xe819;" d="m634 195c-8 8-19 12-30 12-12 0-24-5-33-14l-53-53-14 8c-31 18-74 42-120 87-46 46-70 89-87 121l-8 14 53 53c18 17 18 46 2 62l-98 98c-8 8-19 12-30 12-13 0-25-5-33-13l-24-24-2-4c-9-11-16-24-22-38-5-14-8-26-10-39-12-105 36-202 168-333 155-156 285-168 322-168 6 0 10 1 11 1 13 1 26 4 39 9 14 6 26 13 38 22l5 4 23 22c17 18 18 46 1 63l-98 98z m84-148l-17-18c-8-7-22-19-43-27-12-4-23-7-35-8 0 0-3-1-7-1-35 0-161 12-312 163-148 149-172 235-162 319 1 11 4 23 9 35 8 21 19 35 27 43l17 17c5 5 12 9 20 9 7 0 14-3 18-7l98-98c10-10 10-28-1-39l-61-61-2-1 4-6c3-5 7-12 11-19 18-32 42-77 90-124 47-48 92-72 124-90 7-4 14-8 19-11l6-3 63 62c5 5 12 8 20 8 7 0 13-2 18-7l98-97c10-12 9-29-2-39z m-278 345l-1-3 3-1c24-7 46-19 64-36 16-17 28-38 35-61l0-2 4 0c1 0 2 0 3 0 3 0 5-1 7-1 2 0 4-1 7-1l4 0-1 4c-7 30-22 56-43 77-20 20-45 35-72 42l-3 0-1-3c-2-5-4-10-6-15z m9 95l1-2 2-1c47-8 90-31 123-64 38-38 61-86 67-140l0-3 8-1c2 0 4 0 7 0 1 0 3 0 5 0l4 0-1 4c-5 60-31 115-74 157-38 38-86 63-140 72l-5 0 1-4c1-6 2-12 2-18z m217 25c-63 63-147 101-237 106l-4 0 1-4c1-6 2-12 3-18l1-2 2 0c82-6 159-41 217-99 57-57 92-133 98-215l1-3 3 0c4 0 7 1 11 1l9 1 0 3c-7 87-44 169-105 230z m211-220c-9 112-58 216-136 295-84 84-196 132-315 137l-3 0 0-3c-1-4-1-8-1-12l0-9 3 0c113-4 219-50 299-130 74-75 120-174 129-280l0-3 3 0c6 1 11 1 16 2l5 0 0 3z" horiz-adv-x="1000" />
<glyph glyph-name="donut" unicode="&#xe81a;" d="m859 350c0-93-35-177-92-241l12-12c61 67 98 155 98 253 0 190-141 348-324 373v-17c173-26 306-175 306-356z m-683 155c2 4 4 8 5 12 55 104 159 178 282 190v18c-129-12-240-90-297-200-2-5-5-10-7-14l17-6z m522-455c-57-37-125-59-198-59-198 0-359 161-359 359 0 24 2 47 7 70l-17 6c-5-25-8-50-8-76 0-208 169-377 377-377 78 0 151 24 211 65l-13 12z" horiz-adv-x="1000" />
<glyph glyph-name="donate" unicode="&#xe81b;" d="m466 436c-5-6-7-14-7-22 0-7 2-14 6-20 5-6 11-12 20-15v72h0c-8-3-14-8-19-15z m290 239c-126 45-214-41-256-98h0c-42 57-130 143-256 98-121-44-185-235-29-427 112-138 228-207 285-236h0c57 29 172 98 284 236 157 192 93 384-28 427z m-177-460c-15-17-36-28-64-32v-39h-30v38c-24 3-43 12-58 27-15 15-25 36-29 63l55 6c2-11 6-21 12-29 6-8 13-13 20-17v87c-27 8-47 20-60 36-12 15-19 35-19 57 0 23 8 42 22 57 14 16 33 25 57 27v21h30v-21c23-2 40-10 53-23 13-12 22-29 25-50l-53-6c-3 16-11 27-25 33v-81c34-9 57-21 69-36 12-14 18-32 18-55 0-25-8-46-23-63z m-64 95v-81c11 2 19 7 26 15 7 7 10 17 10 27 0 9-3 17-9 24-5 7-14 12-27 15z" horiz-adv-x="1000" />
<glyph glyph-name="donation" unicode="&#xe81c;" d="m508 478c-7-10-11-21-11-33 0-11 4-21 10-30 7-9 17-17 30-23v107h0c-12-4-22-11-29-21z m430 354c-186 66-316-61-379-146h0c-63 85-193 212-379 146-180-65-275-349-43-634 166-203 337-306 422-348h0c85 42 255 145 421 348 232 285 138 569-42 634z m-262-682c-23-26-54-42-94-48v-57h-45v56c-36 5-64 18-87 40-22 22-36 53-42 94l81 9c3-17 9-31 18-43 9-12 19-20 30-25v129c-40 11-70 29-89 52-18 23-28 52-28 85 0 34 11 62 32 85 21 23 50 36 85 39v31h45v-31c33-3 59-15 78-33 19-19 32-43 37-74l-78-10c-5 24-17 40-37 49v-121c49-13 83-30 101-51 18-22 27-49 27-82 0-37-12-69-34-94z m-94 141v-120c15 3 28 10 37 22 10 11 15 24 15 40 0 14-4 25-12 35-8 10-22 18-40 23z" horiz-adv-x="1118" />
<glyph glyph-name="chrome" unicode="&#xe81d;" d="m498 850c-147-1-291-67-387-186l154-237c39 111 150 182 267 170l414-22c-42 84-108 157-196 208-79 46-166 67-252 67z m-416-226c-52-79-82-173-82-274 0-250 183-457 423-494l128 252c-116-22-233 39-281 146l-188 370z m885-94l-282-15c76-89 82-221 13-317l-226-347c94-6 190 15 278 66 216 125 304 387 217 613z m-467-11c-93 0-169-76-169-169s76-169 169-169 169 76 169 169-76 169-169 169z" horiz-adv-x="1000" />
<glyph glyph-name="embed" unicode="&#xe81e;" d="m325 550l-200-200 200-200h100l-200 200 200 200h-100z m350 0h-100l200-200-200-200h100l200 200-200 200z" horiz-adv-x="1000" />
<glyph glyph-name="community" unicode="&#xe81f;" d="m342 812c0-1 1-4 3-7 7-12 2-45-7-55-9-10-27-2-34 15-5 12-4 22 3 34 3 6 5 12 5 12 0 1-4-3-10-7-6-5-11-8-12-8-1 0-7 1-14 3-15 5-17 3-3-3 14-6 16-7 19-21 4-16 12-27 29-43 13-11 18-17 25-33 5-10 14-25 20-34 15-24 20-41 20-80 0-27-1-34-4-40-9-15-31-18-73-8l-7 1 6-4c8-7 24-11 56-15 34-5 47-10 68-28 8-8 22-18 31-23 25-15 45-33 55-48 11-17 15-28 15-46 0-18-6-30-25-51-8-8-19-23-24-32-20-35-61-58-122-70-44-9-80-5-114 11-71 34-89 85-50 140 13 17 33 34 56 46 21 11 37 14 59 11 34-5 47-18 47-45 1-26-9-38-41-53-9-4-19-10-21-13l-5-5 8 2c4 0 11 3 16 5 4 3 13 7 19 11 22 12 40 6 62-19 8-9 15-16 16-15 2 2-6 17-15 28-16 19-20 28-20 47 0 31 11 52 32 62 6 2 19 6 30 7l19 3-9 3c-11 3-29 3-39 0-16-4-44-6-59-4-21 3-41 13-52 28-19 22-30 56-30 89-1 18 0 21 8 37 9 19 25 43 42 61 12 13 19 26 18 30-1 1-6-3-12-9-7-7-13-12-15-12-5 0-20 9-28 18-12 14-14 23-7 46 4 11 6 25 6 33 0 14-1 13-8-10-3-10-6-15-11-17-6-3-7-3-14 1-11 5-19 18-19 27 0 3 2 12 4 18 3 7 4 13 4 13-1 0-4-5-8-11l-7-10-16 2-17 1 10-5c13-6 20-12 26-24 2-5 11-15 19-24 10-10 15-18 19-27 2-7 8-18 13-26 13-21 14-25 3-45-11-23-20-33-32-37-13-4-20-2-48 13-20 11-23 12-18 6 3-3 15-13 27-23 11-9 24-21 28-26 17-20 34-62 34-83 0-28-28-52-60-52-11 0-34 7-47 15-51 33-61 93-28 170 21 51 49 84 85 104 14 7 14 8-2 6-11-1-19-3-30-9-12-7-16-8-25-8-6 1-16 4-23 8-10 4-13 7-16 14-2 6-3 7-4 4-1-3-2-9-2-14 0-11-3-14-15-15l-9 0 9-4c8-2 11-2 20 1 12 4 16 2 20-10 7-22-8-62-27-76-8-5-13-6-24-7-25-2-34 6-41 32l-2 14-2-9c-1-4-1-13 0-18 1-10 1-11-5-17-4-3-10-8-14-10-11-5-8-7 5-3 14 5 31 3 44-3 20-10 29-30 27-64-1-14-2-23-5-28-5-10-17-17-33-18-22-2-37 5-46 24-3 5-8 13-10 16l-5 5 4-12c3-7 7-17 9-22 7-12 6-17-3-28-8-8-14-22-11-24 1-1 2 0 3 2 2 7 18 19 27 22 23 7 61 2 88-11 25-13 57-52 54-68-4-16-47-56-68-61-15-4-30 0-54 15-11 7-20 12-21 12-1-1 2-3 5-6s11-8 17-14c10-9 11-11 11-19 0-6-2-12-4-15-3-4-3-5 0-5 2 0 8 2 14 5 7 4 12 5 18 3 12-2 39-20 65-46 26-24 44-35 76-46 20-8 31-14 42-27 10-11 14-19 19-40 3-13 3-16 0-32-2-9-8-29-13-43-10-30-22-82-30-128-13-72-10-70 24 20 29 73 45 104 51 100 5-3 17-31 23-51 5-18 12-60 15-81 3-27 6-44 8-42 6 7 4 134-4 198-2 17-4 41-4 54 0 41 9 53 55 77 13 6 29 16 35 22s15 11 19 12c9 4 32 2 43-2 11-5 15-12 13-24-1-6-1-10 0-10 0 0 3 5 5 12 5 16 10 21 21 18 13-3 5 3-11 8-26 8-37 20-37 41 0 19 13 34 42 49 17 9 50 19 62 19 6 0 9-2 16-9 9-11 13-12 8-3-10 18-4 40 13 48 11 6 10 8-2 4-5-1-12-6-18-12-35-38-91-9-106 55-11 46 21 82 71 82 32 0 45-10 64-53 3-9 7-15 8-14 1 0 0 3-1 5s-3 10-5 16c-3 13-1 22 6 27 3 2 2 3-5 3-16-1-34 11-43 27-11 18-3 40 20 56 11 7 11 8 6 8-12 0-16 8-11 25 3 15-2 6-7-11-2-9-8-23-12-32-5-10-9-21-10-25-2-9-17-22-33-25-9-2-12-2-19 1-12 6-17 14-19 32-1 9-3 19-5 23-5 10-5 23 2 36 12 24 29 33 51 26 26-7 33-8 41-6l7 3-6 0c-10 0-21 7-24 14-1 3-1 13-1 21l1 14-3-12c-4-15-7-18-21-22-14-5-27-3-32 4-4 6-4 23 0 40 2 11 10 21 19 24 2 0-3 0-12 0-19-2-22 0-27 17l-3 10 0-11c0-6 2-17 6-29 11-29 9-61-5-88-6-13-19-20-38-22-22-2-36 6-53 30-9 13-5 1 5-15 9-15 10-23 2-35-7-11-13-22-12-23 1 0 3 2 5 4 5 8 18 20 24 24 9 4 26 6 38 3 14-3 24-13 30-29 10-28 0-63-21-74-11-6-36-4-53 5-17 9-42 33-46 45-5 19-7 42-6 67 1 22 2 28 8 44 8 21 25 48 42 66 13 14 29 24 46 28 10 2 23 10 25 15 0 2-1 2-6-1-13-6-22-1-23 13-1 9-4 6-5-5-2-18-27-36-40-29-13 6-12 40 0 54 6 6 1 7-7 0-3-2-7-4-9-4-4 0-13 9-20 19-5 7 1-7 10-26 12-25 13-44 4-71-8-22-19-40-28-45-10-6-27 10-40 38-7 15-10 48-5 64 2 11 16 27 28 35 5 2 8 5 7 5 0 0-6-1-12-3-13-3-17-2-27 7-3 2-5 4-5 2z m132-287c-11-10-6-27 9-31 11-3 26 11 22 22-4 15-21 20-31 9z m-170-13c-8-3-13-14-11-21 5-14 22-19 32-9 14 15-2 38-21 30z m-100-41c-21-8-17-37 4-37 11 0 18 7 18 19 0 7-6 17-11 17-1 0-3 0-5 1-2 1-5 0-6 0z m200-54c-12-6-14-20-5-30 11-11 31-3 31 12 0 10-2 14-9 18-8 4-11 4-17 0z m168-2c-10-8-8-27 4-30 14-4 26 8 21 22-4 10-17 15-25 8z m-469-37c-7-1-15-11-15-19 0-15 22-24 32-13 14 13 2 35-17 32z m422-81c-7-7-6-20 1-26 10-8 22-6 27 5 5 9 5 15-2 21-7 7-19 8-26 0z m-212-15c-9-4-15-13-16-26-1-12-1-13 8-21 8-8 10-9 20-9 12 0 21 4 27 13 2 4 3 11 3 17 0 10-1 12-9 20-7 7-10 8-18 8-6 0-12-1-15-2z m-143 428c10 0 17 8 17 19 0 8-6 17-11 17-1 0-3 1-5 1-1 1-4 1-6 0-21-7-17-37 5-37m-70-96c10 0 18 8 18 19 0 8-6 17-11 17-2 0-4 1-6 1-1 1-4 1-6 0-21-8-17-37 5-37m-27-122c10 0 18 8 18 19 0 8-7 17-12 17-1 0-3 1-5 1-1 1-4 0-6 0-21-8-17-37 5-37m493 44c11 0 18 8 18 19 0 8-6 17-11 17-1 0-4 1-6 1-1 1-4 1-6 0-20-7-17-37 5-37m-177 139c11 0 18 8 18 19 0 8-6 17-11 17-1 0-3 1-5 1-2 1-5 1-6 0-21-7-17-37 4-37m-147-77c10 0 18 7 18 18 0 8-7 18-12 18-1 0-3 0-5 1-1 0-4 0-6-1-21-7-17-36 5-36m67 77c6 0 11 5 11 12 0 5-4 11-7 11-1 0-2 0-3 1-1 0-3 0-5 0-12-5-10-24 4-24m310-19c5 0 9 4 9 10 0 4-4 8-6 8-1 0-2 1-3 1-1 0-2 0-3 0-10-4-8-19 3-19m-76 78c5 0 9 4 9 9 0 5-3 9-6 9 0 0-1 1-2 1-1 0-3 0-3 0-11-4-9-19 2-19m-114-143c6 0 9 3 9 9 0 4-3 9-5 9-1 0-2 0-3 0-1 1-2 1-3 0-10-4-9-18 2-18m76 173c5 0 9 4 9 9 0 4-3 9-6 9 0 0-1 0-2 1-1 0-3 0-3-1-11-3-9-18 2-18m-74 30c6 0 10 4 10 10 0 4-4 9-6 9-1 0-2 0-3 0-1 1-2 0-3 0-10-4-8-19 2-19m-67 14c6 0 9 4 9 10 0 4-3 9-5 9-1 0-2 0-3 0-1 1-2 0-3 0-10-4-8-19 2-19m-76-4c6 0 9 4 9 9 0 4-3 9-5 9-1 0-2 0-3 1-1 0-2 0-3-1-10-3-9-18 2-18m-74-21c6 0 9 4 9 9 0 4-3 9-5 9-1 0-2 0-3 1-1 0-2 0-3-1-10-3-9-18 2-18m-110-77c6 0 9 4 9 9 0 4-3 9-5 9-1 0-2 0-3 0-1 1-2 1-3 0-11-4-9-18 2-18m-71-99c6 0 9 4 9 9 0 4-3 9-5 9-1 0-2 0-3 1-1 0-2 0-3-1-10-3-9-18 2-18m-21-138c5 0 9 3 9 9 0 4-4 9-6 9-1 0-2 0-3 0-1 1-2 1-3 0-10-4-8-18 3-18" horiz-adv-x="679" />
<glyph glyph-name="img-big" unicode="&#xe820;" d="m878 143v-46h-756v46h756z m0 109h-756v351h756v-351z m-47 306h-662v-261h662v261z" horiz-adv-x="1000" />
<glyph glyph-name="align-center" unicode="&#xe821;" d="m150 646h700c15 0 27 12 27 27 0 15-12 27-27 27h-700c-15 0-27-12-27-27s12-27 27-27z m108-161c-15 0-27-12-27-27 0-15 12-27 27-27h484c15 0 27 12 27 27 0 15-12 27-27 27h-484z m430-431h-376c-15 0-27-12-27-27 0-15 12-27 27-27h376c15 0 27 12 27 27 0 15-12 27-27 27z m162 215h-700c-15 0-27-12-27-27 0-14 12-27 27-27h700c15 0 27 13 27 27 0 15-12 27-27 27z" horiz-adv-x="1000" />
<glyph glyph-name="opera" unicode="&#xe822;" d="m426-150c-568 0-568 1000 0 1000s567-1000 0-1000z m0 92c237 0 237 816 0 816s-238-816 0-816z" horiz-adv-x="851" />
<glyph glyph-name="grp-line-chart" unicode="&#xe823;" d="m823 535c-21 0-39-15-44-35h-71l98 131c5-3 11-4 17-4 26 0 46 21 46 46s-21 46-46 46-46-21-46-46c0-11 4-20 11-28l-109-145h-89c-5 20-22 35-44 35-25 0-46-21-46-46 0-12 5-22 11-30l-85-119-65 13c-1 24-21 43-45 43-26 0-46-21-46-46s20-46 46-46c18 0 33 11 41 26l54-11-79-111c-5 2-10 4-16 4-26 0-46-21-46-46s20-46 46-46 46 20 46 46c0 11-5 21-11 29l85 119 65-13c1-24 21-43 45-43 26 0 46 21 46 46 0 11-4 20-10 28l108 145h89c6-20 23-35 44-35 26 0 46 21 46 47s-21 46-46 46z m-259-188c-6 2-12 3-18 3-18 0-33-11-41-26l-55 11 80 111c5-2 10-4 16-4 21 0 38 15 44 35h71l-97-130z m305-341v-25h-738v738h29l-1-712 710-1z" horiz-adv-x="1000" />
<glyph glyph-name="edtr-opt" unicode="&#xe824;" d="m499-26c-63 0-126 16-183 49-11 6-15 19-9 30 6 10 20 14 31 8 128-73 292-50 396 55 130 129 130 339 0 468-129 130-339 130-468 0-130-129-130-339 0-468 8-9 8-23 0-32-9-8-23-8-32 0-146 147-146 385 0 532 147 146 385 146 532 0 146-147 146-385 0-532-72-72-169-110-267-110z m1 181c-12 0-22 10-22 22v332c0 12 10 22 22 22 12 0 22-10 22-22v-332c0-12-10-22-22-22z m166 166h-332c-12 0-22 10-22 22 0 12 10 22 22 22h332c12 0 22-10 22-22 0-12-10-22-22-22z" horiz-adv-x="1000" />
<glyph glyph-name="pencil" unicode="&#xe825;" d="m850 503l-34-34-201 201 34 34c37 37 97 37 134 0l67-67c37-37 37-97 0-134z m-470-403c-9-9-9-24 0-34 9-9 24-9 34 0l369 369-34 34-369-369z m-168 168c-9-10-9-25 0-34 10-9 25-9 34 0l369 369-34 34-369-369z m436 302l-369-370c-18-18-18-48 0-67 19-18 49-18 68 0l369 369-68 68z m-301-537c-12 11-17 26-19 40-5 0-10-1-15-1-25 0-49 10-67 28-18 18-28 42-28 67 0 5 1 9 1 14-15 2-29 9-40 20-1 1-2 2-3 4l-58-233 232 58c-1 1-2 2-3 3z" horiz-adv-x="1000" />
<glyph glyph-name="add-image" unicode="&#xe826;" d="m778 583h-94l-93 93h-186l-93-93h-93c0 0-94 0-94-93v-280c0-93 94-93 94-93s131 0 268 0c38-56 102-93 174-93 90 0 167 57 197 137 13 24 13 49 13 49s0 187 0 280-93 93-93 93z m-326-365c-54 19-94 71-94 132 0 77 63 140 140 140 45 0 84-21 110-54-90-23-157-105-157-202 0-6 1-11 1-16z m209-145c-88 0-160 72-160 161 0 88 72 160 160 160 89 0 160-72 161-160-1-89-72-161-161-161z m24 277h-47v-93h-93v-47h93v-93h47v93h93v47h-93v93z" horiz-adv-x="1000" />
<glyph glyph-name="upload" unicode="&#xe827;" d="m618 121c3-2 6-3 9-3 3 0 6 1 9 3 4 5 4 13 0 18l-127 127c0 0 0 0 0 0l-9 8-9-8c0 0 0 0 0-1l-126-126c-5-5-5-13 0-18 4-4 12-4 17 0l106 109v-214c0-9 5-15 12-15 7 0 12 6 12 13v214l106-107z m121 438c-30 84-109 140-199 140-85 0-161-51-194-129-16 8-33 11-50 11-65 0-118-53-118-118-34-26-55-66-55-109 0-76 62-138 140-138 1 0 2 0 3 0 0 0 1 0 2 0h128c7 0 12 6 12 12 0 7-5 13-12 13h-129c-1 0-2 0-3 0l-3 0c-62 0-113 50-113 113 0 37 18 72 49 93l5 6 0 10c0 52 42 94 94 94 18 0 35-5 50-14l13-8 5 14c26 75 97 125 176 125 81 0 153-52 178-130l2-7 7-1c73-12 125-74 125-147 0-82-66-148-149-148h-99c-6 0-12-6-12-13 0-6 6-12 12-12h99c96 0 174 78 174 173 0 83-58 153-138 170z" horiz-adv-x="1000" />
<glyph glyph-name="home" unicode="&#xe828;" d="m137 342c3 0 6 1 8 3l68 55v-338c0-8 6-14 14-14h540c7 0 13 6 13 14v338l75-56c3-2 6-2 9-2 4 0 8 1 10 5 5 6 4 14-2 19l-94 69c-1 3-4 6-8 6l-279 208c0 1 0 1 0 1-1 0-1 0-2 1 0 0 0 0-1 0 0 0-1 0-1 1-1 0-1 0-1 0-1 0-1 0-2 0 0 0 0 0-1 0 0 0-1 0-1 0-1 0-1 0-1 0-1 0-1-1-2-1 0 0-1 0-1 0 0 0-1 0-1-1-1 0-1 0-1-1-1 0-1 0-1 0l-111-90v34c0 8-6 14-13 14h-78c-8 0-14-6-14-14v-120l-131-107c-6-5-7-14-2-19 3-4 7-5 11-5z m149 238h51v-43l-51-42v85z m-46-158l244 199 269-201v-345h-513v347z" horiz-adv-x="1000" />
<glyph glyph-name="download" unicode="&#xe829;" d="m509-4l128 129c5 5 5 13 0 17-4 5-12 5-17 0l-108-107v217c0 7-5 12-12 12-7 0-12-5-12-12v-217l-108 107c-5 5-12 5-17 0-5-4-5-12 0-17l128-129c0 0 0 0 0 0l9-8 9 8c0 0 0 0 0 0z m233 566c-30 86-111 143-202 143-86 0-163-52-196-130-16 7-33 11-51 11-66 0-120-54-120-120-34-27-55-68-55-111 0-77 63-139 142-140 1 0 2 0 2 0 1 0 2 0 3 1h129c7 0 13 5 13 12 0 7-6 12-13 12h-130c-1 0-2 0-4 0l-2 0c-64 0-115 52-115 115 0 37 18 73 50 94l5 6 0 7c0 1 0 2 0 3 0 53 43 96 95 96 18 0 35-5 51-14l13-8 5 14c26 76 98 127 178 127 83 0 156-53 181-132l2-7 8-2c73-11 126-74 126-148 0-83-67-151-151-151h-100c-7 0-13-5-13-12 0-7 6-13 13-13h100c97 0 176 79 176 176 0 84-59 155-140 171z" horiz-adv-x="1000" />
<glyph glyph-name="xlsx" unicode="&#xe82a;" d="m772 546c0 3-1 6-3 9l-145 166c0 0 0 0 0 0-1 1-2 1-3 2 0 0-1 1-1 1-1 0-2 1-3 1 0 0 0 0-1 0-1 0-2 1-3 1h-356c-16 0-29-14-29-30v-692c0-16 13-30 29-30h486c16 0 30 14 30 30v540c0 1-1 1-1 2z m-421-517l-13 26c-5 10-8 17-12 25h-1c-2-8-6-15-10-25l-12-26h-37l41 72-39 70h36l13-26c4-9 7-15 11-23h0c3 9 6 15 10 23l12 26h36l-40-69 42-73h-37z m143 0h-89v142h33v-115h56v-27z m53-2c-16 0-32 4-40 9l7 26c8-4 22-8 35-8 15 0 23 6 23 15 0 9-7 14-24 20-24 8-39 21-39 42 0 24 20 42 54 42 16 0 27-3 36-7l-7-26c-6 3-16 7-30 7-14 0-21-6-21-14 0-9 8-13 27-20 25-9 36-22 36-42 0-24-18-44-57-44z m154 2l-13 26c-5 10-9 17-13 25h0c-3-8-7-15-11-25l-12-26h-36l41 72-40 70h37l12-26c4-9 8-15 11-23h0c4 9 6 15 10 23l12 26h36l-39-69 42-73h-37z m-444 196v471h341v-151c0-8 7-14 15-14h130l0-306h-486z m293 312h-114-130v-56-7-48-7-48-7-56h122 8 114 8 122v63 48 55 7 56h-130z m0-111h-114v48h114v-48z m-236 103h114v-48h-114v48z m0-55h114v-48h-114v48z m0-55h114v-48h-114v48z m0-103v48h114v-48h-114z m122 0v48h114v-48h-114z m237 0h-115v48h115v-48l0 0z m0 110h-115v48h115v-48l0 0z m-115 55v48h115v-48h-115z" horiz-adv-x="1000" />
<glyph glyph-name="xls" unicode="&#xe82b;" d="m774 547c0 3-1 7-4 9l-145 166c0 1 0 1 0 1-1 1-2 1-3 2-1 0-1 0-1 1-1 0-2 1-3 1-1 0-1 0-1 0-1 0-2 1-3 1h-358c-17 0-30-14-30-30v-696c0-16 13-30 30-30h488c17 0 30 14 30 30v543c0 1 0 1 0 2z m-376-537l-16 34c-7 12-11 22-17 33h0c-4-11-9-21-14-33l-16-34h-47l53 93-51 91h48l16-33c5-12 9-21 14-31h0c4 12 8 20 13 31l15 33h48l-52-90 54-94h-48z m185 0h-114v184h41v-149h73v-35z m70-2c-21 0-42 5-52 11l8 34c11-6 29-11 46-11 19 0 29 8 29 20 0 11-8 18-30 25-31 11-51 28-51 55 0 31 26 55 70 55 20 0 36-4 47-9l-10-34c-7 4-20 9-38 9-18 0-27-8-27-18 0-11 11-17 34-26 33-12 48-29 48-54 0-31-24-57-74-57z m-397 217v473h343v-152c0-8 6-14 15-14h130l0-307h-488z m288 313h-115-131v-56-7-48-8-48-7-56h123 7 116 7 123v63 48 56 7 56h-130z m0-111h-115v48h115v-48z m-238 103h115v-48h-115v48z m0-55h115v-48h-115v48z m0-56h115v-48h-115v48z m0-103v48h115v-48h-115z m123 0v48h115v-48h-115z m238 0h-116v48h116v-48z m0 111h-116v48h116v-48z m-116 55v48h116v-48h-116z" horiz-adv-x="1000" />
<glyph glyph-name="watch" unicode="&#xe82c;" d="m873 350c-88 102-210 219-373 219-66 0-126-19-189-58-54-34-109-81-184-159l-2-2 13-13c108-111 201-206 362-206 71 0 140 24 211 71 61 41 112 93 153 135l11 11-2 2z m-373 188c65 0 127-19 190-60 47-31 92-72 144-129-75-76-187-186-334-186-67 0-125 16-184 55-54 35-102 84-149 132 116 117 212 188 333 188z m0-344c86 0 156 70 156 156s-70 156-156 156-156-70-156-156 70-156 156-156z m0 280c69 0 125-55 125-124s-56-124-125-124-125 55-125 124 56 124 125 124z m63-124l0 0c0-34-29-62-63-62s-62 29-62 63 30 62 62 62v31c-52 0-94-42-94-94s42-94 94-94 94 42 94 94v0h-31z" horiz-adv-x="1000" />
<glyph glyph-name="warning-sign" unicode="&#xe82d;" d="m868 93l-327 565c-8 15-24 24-41 24-17 0-33-9-42-24l-327-568c-9-14-9-33 0-48 8-14 24-24 41-24h656c26 0 48 22 48 48 0 10-3 20-8 27z m-40-47h-656c-7 0-14 4-17 10-4 6-4 14 0 20l327 568c4 6 11 10 18 10 7 0 14-4 17-10l327-566c3-3 4-7 4-12 0-11-9-20-20-20z m-313 165l8 258h-57l8-258h41z m-21-36c-19 0-33-15-33-36 0-20 14-35 33-35 20 0 34 14 34 35 0 21-14 36-34 36z" horiz-adv-x="1000" />
<glyph glyph-name="video" unicode="&#xe82e;" d="m651 618h-463c-39 0-75-30-75-68v-394c0-39 36-74 75-74h463c39 0 69 35 69 74v394c0 38-30 68-69 68z m34-462c0-19-15-38-34-38h-463c-20 0-39 19-39 38v394c0 19 19 32 38 32l463 0c20 0 35-13 35-32v-394l0 0z m1 284v-179l205-112v402l-205-111z m169 48v-277l-134 70v138l134 70 0-1z" horiz-adv-x="1000" />
<glyph glyph-name="users" unicode="&#xe82f;" d="m500 631l0 0 0 0z m182-435c-26 9-55 10-81 19-8 3-24 6-27 15-3 9-3 20-4 29 0 8-1 15-1 22 0 5 13 16 16 20 10 18 11 41 13 61 17-4 19 27 22 37 2 6 15 52-5 46 5 8 7 19 8 28 4 25 6 53-2 77-16 51-64 80-116 81-52 2-104-23-124-74-9-24-8-51-5-77 1-12 3-25 9-35-19 5-9-35-7-42 3-10 6-46 24-41 2-15 3-32 8-47 3-10 9-19 16-27 3-4 5-5 5-10 0-15 0-31-4-46-4-15-37-21-50-24-35-7-67-10-96-32-35-26-52-65-52-107 162 0 325 0 488 0 18 0 36 0 55 0 0 57-35 108-90 127-22 8 22-7 0 0z m-395-56c11 11 25 22 40 27 21 8 44 8 65 13 18 5 40 12 53 24 13 12 14 30 15 46 1 14 1 27 1 41 0 10-11 15-16 23-9 12-10 29-11 44-1 6-1 14-7 18-5 5-10 7-13 15-4 10-5 21-8 32-2 6 5 13 8 18 5 11-4 27-6 38-5 32-5 67 18 92 46 51 152 35 167-37 5-22 2-49-4-70-3-10-6-17 0-26 8-13 4-22 0-37-3-12-7-17-16-25-8-6-7-22-8-31-2-11-3-22-9-31-3-4-17-15-17-19 0-21-1-43 3-64 5-31 31-38 56-48 26-10 56-6 81-19 25-12 50-36 58-64-155 0-310 0-465 0-3 0-6 0-8 0 3 16 12 28 23 40 18 19-11-12 0 0z m-6 81c14 7 29 9 44 10 6 1 8 4 4 10-8 10-35 12-46 16-7 3-9 5-10 13 0 4-2 19 1 22 2 2 14 1 17 1 11 2 22 4 33 8 4 2 9 4 13 7 4 3-4 12-6 17-7 14-10 30-11 46-2 32 3 63-3 95-8 48-45 72-92 72-29 0-58-10-74-36-18-28-17-62-16-94 0-18 1-37-2-55-1-8-2-15-5-23-2-6-13-20-9-23 16-11 44-15 63-13 1-10 2-22-1-31-6-14-46-18-59-22-34-12-59-40-59-78 35 0 71 0 107 0 16 0 32 0 48 0 2 0 12 18 15 21 14 15 30 28 48 37 18 9-28-14 0 0z m-80-27c-32 0-64 0-96 0 14 23 49 21 72 29 21 8 34 21 37 43 0 3 0 57-2 57-17 1-35 1-52 3 13 44 1 89 8 133 5 31 25 49 58 49 31 0 54-14 61-46 9-45-4-91 10-136-11-3-22-3-33-4-6 0-11 0-17 0-3 0-2-7-2-9-2-22-10-55 7-73-19-11-39-27-51-46z m580-31c52 0 104 0 157 0 0 38-26 67-60 78-16 5-47 7-58 20-6 7-3 24-2 33 9-1 18 0 27 1 8 2 16 3 23 6 4 1 7 3 11 5 7 4 4 5 0 11-22 36-12 81-13 121-1 32-9 68-39 86-27 17-66 18-95 6-83-33-34-143-62-206-5-10-12-14 0-20 7-4 14-6 22-8 11-3 23-4 34-5 2 0 1-24 0-27-2-9-23-12-30-14-8-2-22-3-26-11-5-13 20-10 26-11 20-4 38-15 53-28 12-9 28-22 32-37z m-1 52c-10 10-20 19-32 26 17 17 9 50 8 72-2 12-4 9-17 10-11 0-25-1-36 3 14 44 3 88 10 133 5 33 28 49 61 49 31 0 51-15 57-44 10-46-5-92 9-137-16-3-34-2-50-3-4 0-4-49-4-53 2-23 12-37 34-46 24-9 61-7 75-31-18 0-36 0-54 0-11 0-22 0-33 0-14 0-18 12-28 21-10 9 8-7 0 0z" horiz-adv-x="1000" />
<glyph glyph-name="moderator" unicode="&#xe830;" d="m810 599c0 10-7 18-17 20-46 6-92 17-136 33-45 17-94 39-147 69-7 4-13 4-20 0-53-30-101-52-146-69-45-16-90-27-136-33-10-2-17-10-18-20-5-188 37-342 123-462 47-65 106-118 177-158 6-4 14-4 21 0 70 41 129 93 176 158 87 120 127 274 123 462z m-156-439c-41-56-92-103-154-141-62 38-113 85-154 141-79 110-117 250-115 421 43 7 86 19 129 34 43 16 89 38 140 65 51-27 97-49 140-65 43-15 86-27 130-34 1-172-38-312-116-421z m-204 147h88c6 0 12 6 12 12v138c0 6-6 12-12 12h-88c-6 0-12-6-12-12v-138c0-6 6-12 12-12z m84-40l0 0h-100c-24 0-44 20-44 44v164c0 24 20 44 44 44h120c24 0 44-20 44-44v-294l-66 86h2z" horiz-adv-x="1000" />
<glyph glyph-name="more-circle" unicode="&#xe831;" d="m877 350c0 208-169 377-377 377s-377-169-377-377 169-377 377-377 377 169 377 377z m-720 0c0 189 154 343 343 343 189 0 343-154 343-343 0-189-154-343-343-343-189 0-343 154-343 343z m174 36c-20 0-36-16-36-36 0-20 16-36 36-36 20 0 37 16 37 36s-17 36-37 36z m169 0c-20 0-36-16-36-36s16-36 36-36c20 0 36 16 36 36s-16 36-36 36z m157 0c-20 0-36-16-36-36s16-36 36-36c20 0 36 16 36 36s-16 36-36 36z" horiz-adv-x="1000" />
<glyph glyph-name="unmoderated" unicode="&#xe832;" d="m477 725h93v-141h-93v141z m234-305l94 94-94 94v-70h-563v-47h563v-71z m-281-93l-94 93v-70h-188v-47h188v-70l94 94z m211 70c-25 0-49-5-71-12v59h-93v-126c-30-36-47-82-47-132s17-96 47-132v-79h93v12c22-8 46-12 71-12 116 0 211 94 211 211 0 117-95 211-211 211z m0-372c-89 0-161 72-162 161 1 89 73 161 162 161 89 0 161-72 161-161 0-89-72-161-161-161z m78 184c-2 5-4 10-6 15l28 27-33 34-27-28c-6 3-11 5-17 7v39h-47v-39c-5-1-10-3-15-6l-27 27-33-34 27-26c-3-5-5-10-7-16h-39v-46h39c2-6 4-12 7-17l-27-27 33-33 28 28c5-3 9-5 14-6v-39h47v39c5 1 11 4 15 6l29-28 33 33-28 28c2 5 4 10 6 16h39v46h-39v0z m-78-58c-20 0-35 16-36 35 1 19 16 35 36 35 19 0 35-16 35-35 0-19-16-35-35-35z" horiz-adv-x="1000" />
<glyph glyph-name="unlocked" unicode="&#xe833;" d="m342 408v129c0 87 71 158 158 158s158-71 158-158v-14h29v14c0 103-84 187-187 187-103 0-187-84-187-187v-129h-101v-432h576v432h-446z m417-403h-518v374h518v-374z m-259 287c-32 0-58-25-58-57 0-27 19-49 44-56v-74c0-8 6-14 14-14 8 0 14 6 14 14v74c25 7 44 29 44 56 0 32-26 57-58 57z m0-86c-16 0-29 13-29 29 0 16 13 29 29 29s29-13 29-29c0-16-13-29-29-29z" horiz-adv-x="1000" />
<glyph glyph-name="unlink" unicode="&#xe834;" d="m854 599c-22 40-65 65-111 65-21 0-43-6-62-16l-239-135 28-49 239 135c10 5 22 9 34 9 26 0 50-14 62-37 10-16 12-35 7-53-5-19-17-34-34-43l-217-122c-4 27-16 51-35 70-34 34-88 46-133 30l-20-7 19-53 20 7c25 9 55 2 74-16 11-11 18-25 20-40-1 0-2 0-3 0-18 6-33 17-42 34l-11 18-49-27 11-18c16-30 43-52 76-61 1 0 2 0 4-1-2-2-4-4-6-6l-179-179c-13-13-31-21-50-21-19 0-37 8-50 21-14 13-21 31-21 50 0 19 7 37 21 50l155 156-40 40-155-156c-24-24-37-56-37-90 0-34 13-66 37-90 24-24 56-37 90-37 34 0 66 13 90 37l179 179c13 14 23 30 29 47 11 3 21 7 30 12l221 124c29 16 51 44 60 76 9 33 5 67-12 97z m-453-101c7 2 12 8 10 16l-26 148c-2 7-9 12-16 11-7-1-11-8-10-15l27-149c1-7 8-12 15-11z m-203-78l149 27c7 1 11 8 10 15-1 7-8 12-15 11l-149-27c-7-2-12-8-10-15 1-7 8-12 15-11z" horiz-adv-x="1000" />
<glyph glyph-name="underline" unicode="&#xe835;" d="m255 55h490v-75h-490v75z m409 308c0-49-14-87-41-113-27-27-66-39-118-39-54 0-96 12-125 39-29 26-44 64-44 113v357h-81v-357c0-37 6-69 17-96 12-27 28-50 49-67 22-18 48-31 79-40 31-8 66-12 105-12 76 0 135 18 177 54 42 37 63 90 63 161v357h-81v-357z" horiz-adv-x="1000" />
<glyph glyph-name="txt" unicode="&#xe836;" d="m772 546c0 3-1 6-3 9l-145 166c0 0 0 0 0 0-1 1-2 1-3 2 0 0-1 1-1 1-1 0-2 1-3 1 0 0 0 0-1 0-1 0-2 1-3 1h-356c-16 0-29-14-29-30v-692c0-16 13-30 29-30h486c16 0 30 14 30 30v540c0 1-1 1-1 2z m-360-391h-49v-145h-41v145h-48v34h138v-34z m120-145l-16 32c-7 13-11 22-16 32h-1c-3-10-8-19-13-32l-15-32h-46l51 90-50 89h47l16-33c5-11 9-20 13-30h1c4 12 7 20 12 30l15 33h46l-50-88 53-91h-47z m194 145h-49v-145h-41v145h-48v34h138v-34h0z m-469 70v471h341v-151c0-8 7-14 15-14h130v-306h-486z m105 298h164c5 0 9 5 9 10s-4 10-9 10h-164c-5 0-10-4-10-10s5-10 10-10z m268-58h-268c-5 0-10-5-10-10 0-6 5-10 10-10h268c6 0 10 4 10 10 0 5-4 10-10 10z m0-78h-268c-5 0-10-5-10-10 0-6 5-10 10-10h268c6 0 10 4 10 10 0 5-4 10-10 10z m0-80h-268c-5 0-10-5-10-10s5-10 10-10h268c6 0 10 5 10 10s-4 10-10 10z" horiz-adv-x="1000" />
<glyph glyph-name="send" unicode="&#xe837;" d="m353 138c4 5 12 5 16 0 5-4 5-11 0-16l-57-58c-5-4-12-4-17 0-2 2-3 5-3 8h0v185c0 5 2 9 6 11l415 277c6 3 13 2 16-3 4-6 3-13-3-16l-411-275v-151l38 38z m-12 65c-4 5-4 12 0 16 5 5 12 5 17 0l129-129 360 518v4l-684-198 148-148c5-5 5-12 0-17-4-4-11-4-16 0l-162 162 0 0c-1 2-2 3-3 5-1 6 2 13 8 15l716 208c2 0 3 0 5 0 6 0 11-5 11-11v-23h0c0-3 0-5-2-7l-370-532 0 0c0-1-1-1-1-2-5-4-12-4-17 0l-139 139z" horiz-adv-x="1000" />
<glyph glyph-name="ie" unicode="&#xe838;" d="m844 850c-81-1-181-46-281-106-239 35-498-103-509-386 60 93 224 257 367 301l0-13c-179-90-571-612-360-773 90-69 310 37 344 76 29-5 59-8 89-8 201 0 371 123 424 292l-301 0c-13-56-56-92-121-92-102 0-126 68-126 151l561 0c29 204-114 384-306 439 174 115 363 161 299-104l20 0c35 109 21 191-38 213-18 7-37 10-58 10-1 0-3 0-4 0z m-352-303c79 0 128-48 128-129l-252 0c0 77 46 129 124 129z m-367-422c58-83 149-145 256-171-77-58-226-84-266-52-48 40-36 124 10 223z" horiz-adv-x="944" />
<glyph glyph-name="trash-closed" unicode="&#xe839;" d="m827 650h-179v77h-296v-77h-179v-189h71v-488h512v488h71v189l0 0z m-447 49h240v-45h-240v45z m348-698h-456v460h456v-460z m71 488h-43-512-43v133h598v-133l0 0z m-447-74h28v-351h-28v351z m268 0h28v-351h-28v351z m-134 0h28v-351h-28v351z" horiz-adv-x="1000" />
<glyph glyph-name="key" unicode="&#xe83a;" d="m427 53l-97 98 236 235c75-56 182-51 251 18 75 75 75 197 0 272-76 76-198 76-273 0-68-68-74-175-17-251l-393-392c-10-10-9-27 1-38 11-11 28-12 38-1l40 40 59-59c10-10 28-10 39 0 10 11 10 29 0 39l-59 59 39 39 97-98c11-10 29-10 39 0s11 29 0 39z m156 584c54 54 141 54 195 0 53-53 53-141 0-194-54-54-141-54-195 0-54 53-54 141 0 194z" horiz-adv-x="1000" />
<glyph glyph-name="trash" unicode="&#xe83b;" d="m781 629h-156v39c0 31-26 57-57 57h-136c-31 0-57-26-57-57v-39h-156v-29h41l46-568c0-31 26-57 57-57h276c31 0 57 26 57 57l45 568h40v29z m-377 39c0 16 12 29 28 29h136c16 0 28-13 28-29v-39h-192v39l0 0z m263-634v-1-1c0-16-13-28-28-28h-276c-15 0-28 12-28 28v1 1l-46 566h424l-46-566z m-181 504h28v-471h-28v471z m139 0h-28l-21-471h28l21 471z m-222 0h-28l21-471h28l-21 471z" horiz-adv-x="1000" />
<glyph glyph-name="time-outline" unicode="&#xe83c;" d="m500 756c-224 0-406-182-406-406s182-406 406-406 406 182 406 406-182 406-406 406z m0-779c-205 0-372 168-372 373 0 205 167 373 372 373 205 0 373-167 373-373 0-205-168-373-373-373z m0 373h-187v-34h221v284h-34v-250z" horiz-adv-x="1000" />
<glyph glyph-name="time-bomb" unicode="&#xe83d;" d="m715 367l43 43-36 37c19 19 63 70 45 115-18 43-86 64-209 62 2 4 4 7 7 11l16 21-26-3c-15-2-29 3-39 13-10 10-15 24-13 39l2 18-18-7c-13-5-27-4-40 3l-20 11 3-23c3-15-2-30-13-41-6-6-14-10-23-12l-24-6 20-14c2-2 4-3 6-5 10-10 15-24 13-39l-1-14 14 1c22 3 43-9 50-32l6-18 23 25c12 12 30 19 46 18l20-2-8 17c-3 5-4 11-5 16 149 3 184-28 192-48 12-29-20-70-40-91l-45 45-45-45c-102 55-228 37-310-45-102-102-102-268 0-370 102-102 268-102 370 0 85 85 101 218 39 320z m-229 202c-12 18-32 30-54 31-1 14-6 28-15 39 6 3 11 7 16 11 11 12 18 27 20 43 9-3 18-3 28-2 2-15 8-29 19-41 10-10 23-16 37-19-5-12-7-26-4-39-17-3-34-11-47-23z m-165-506c-93 93-93 245 0 338 78 77 197 93 291 37l8-4 41 42 65-66-40-40 5-7c62-95 49-221-31-300-93-94-245-94-339 0z" horiz-adv-x="1000" />
<glyph glyph-name="time" unicode="&#xe83e;" d="m500 756c-224 0-406-182-406-406 0-224 182-406 406-406 224 0 406 182 406 406 0 224-182 406-406 406z m0-779c-205 0-372 168-372 373 0 205 167 373 372 373 205 0 373-167 373-373 0-205-168-373-373-373z m0 373h-187v-34h221v284h-34v-250z" horiz-adv-x="1000" />
<glyph glyph-name="star" unicode="&#xe83f;" d="m905 439h-310l-95 287-95-287h-310l254-177-99-288 250 178 250-178-99 288 254 177z m-212-388l-193 138-193-138 77 222-195 135h237l74 223 74-223h237l-195-135 77-222z" horiz-adv-x="1000" />
<glyph glyph-name="sort" unicode="&#xe840;" d="m877 350c0 208-169 377-377 377s-377-169-377-377 169-377 377-377 377 169 377 377z m-720 0c0 189 154 343 343 343 189 0 343-154 343-343 0-189-154-343-343-343-189 0-343 154-343 343z m382 258v-442-55c2-2 107 101 107 101 3 3-13 23-18 18l-64-64v442l-25 0z m-81-496v443 55c-2 2-107-102-107-102-3-2 13-23 18-18l64 65v-443l25 0z" horiz-adv-x="1000" />
<glyph glyph-name="message-typing" unicode="&#xe841;" d="m682 364h-364c-7 0-13-7-13-14s6-14 13-14h364c8 0 14 6 14 14s-6 14-14 14z m0 91h-364c-7 0-14-6-14-14 0-7 7-13 14-13h364c8 0 14 6 14 13 0 8-6 14-14 14z m0 91h-364c-7 0-13-7-13-14 0-7 6-14 13-14h364c8 0 14 7 14 14 0 7-6 14-14 14z m137 182h-637c-33 0-59-27-59-60v-454c0-32 25-58 57-59 0 0 1-1 2-1h358l178-178c3-2 6-4 10-4 1 0 3 1 5 1 5 3 8 8 8 13v168h78c0 0 1 0 1 1 32 1 57 27 58 59v455c-1 32-27 59-59 59z m31-515c0-17-14-31-31-31-1 0-2 0-2 0h-89c-8 0-14-7-14-14v-149l-159 159c-2 2-6 4-9 4h-363c0 0-1 0-1 0-18 0-32 14-32 32v455c0 17 14 32 32 32h637c17 0 31-15 31-33v-455z" horiz-adv-x="1000" />
<glyph glyph-name="settings" unicode="&#xe842;" d="m226 179v487c0 9-8 16-17 16-8 0-16-7-16-16v-487c-39-7-70-42-70-84 0-48 39-86 86-86 48 0 87 38 87 86 0 42-31 77-70 84z m565 513c-48 0-87-39-87-87 0-42 31-77 71-84v-487c0-9 7-16 16-16 9 0 16 7 16 16v487c40 7 70 42 70 84 0 48-39 87-86 87z m-278-252v226c0 9-7 16-16 16-9 0-16-7-16-16v-226c-40-8-70-43-70-85 0-42 30-77 70-85v-226c0-9 7-16 16-16 9 0 16 7 16 16v226c40 8 70 43 70 85 0 42-30 77-70 85z" horiz-adv-x="1000" />
<glyph glyph-name="more" unicode="&#xe843;" d="m188 419c-38 0-69-31-69-69 0-38 31-69 69-69s70 31 70 69c0 38-31 69-70 69z m324 0c-39 0-70-31-70-69 0-38 31-69 70-69 38 0 69 31 69 69 0 38-31 69-69 69z m300 0c-39 0-70-31-70-69 0-38 31-69 70-69s69 31 69 69c0 38-31 69-69 69z" horiz-adv-x="1000" />
<glyph glyph-name="whatsapp" unicode="&#xe844;" d="m874 360c0-202-164-365-367-365-65 0-125 17-178 46l-203-65 66 196c-33 54-52 119-52 188 0 201 164 364 367 364 203 0 367-163 367-364z m-367 306c-170 0-309-137-309-306 0-67 22-129 59-180l-39-114 119 38c49-32 107-51 170-51 170 0 309 138 309 307 0 169-139 306-309 306z m185-390c-2 3-8 6-17 10-9 5-53 26-61 29-9 3-15 5-21-4-6-9-23-29-28-35-6-6-11-7-20-2-9 4-38 13-72 44-27 24-45 53-50 62-5 9-1 13 4 18 4 4 9 10 13 16 5 5 6 8 9 14 3 6 2 12-1 16-2 5-20 49-27 66-8 18-15 15-21 15-5 0-11 1-17 1-6 0-16-2-24-11-8-9-31-31-31-75 0-44 32-86 36-92 5-6 63-99 154-135 92-36 92-24 108-22 17 1 54 21 61 42 8 21 8 39 5 43z" horiz-adv-x="1000" />
<glyph glyph-name="search" unicode="&#xe845;" d="m871 3l-254 254c44 49 72 115 72 187 0 155-127 282-283 282s-282-127-282-282c0-156 127-283 282-283 72 0 138 28 187 72l254-254c4-3 8-5 12-5s9 2 12 5c7 7 7 17 0 24z m-465 192c-137 0-248 112-248 249 0 137 111 248 248 248 138 0 249-111 249-248 0-63-23-120-62-164-7-8-15-16-23-23-44-39-101-62-164-62z" horiz-adv-x="1000" />
<glyph glyph-name="save" unicode="&#xe846;" d="m873 633l-91 91c-3 3-6 4-10 3h-44c0 0 0 1-1 1 0 0 0-1 0-1h-454c-1 0-1 1-1 1 0 0 0-1 0-1h-136c-8 0-14-6-14-13l1-728c0-8 6-14 13-14l728 1c4 0 7 1 10 4 2 2 4 6 4 9l-1 637c0 4-1 7-4 10z m-159 67l0-245-428 0 0 245h428z m-473-701l0 337 519 1 0-337-519-1z m546 1l0 350c0 8-7 14-14 14l-546-1c-4 0-7-1-10-3-2-3-4-7-4-10l1-351h-64l-1 701h110l0-259c0-4 1-7 4-10 2-2 6-4 9-4l455 1c8 0 14 6 14 13l0 259h26l83-82 1-618-64 0z m-462 154l363 1c8 0 14 6 14 13 0 8-6 14-14 14l-363 0c-8 0-14-7-14-14 0-7 6-14 14-14z m0 89l363 0c8 0 14 6 14 14 0 7-6 13-14 13l-363 0c-8 0-14-6-14-14 0-7 6-13 14-13z m363-154l-363 0c-8 0-14-7-14-14 0-8 6-14 14-14l363 1c8 0 14 6 14 13 0 8-6 14-14 14z m-143 405h91c1 0 1 0 1 0 8 0 14 6 14 14 0 1-1 3-1 4l0 136c0 3-2 7-4 9-3 3-6 4-10 4h0l-91 0c-3 0-7-1-9-4s-4-6-4-10l0-139c0-8 6-14 13-14z m78 140l0-113h-64l0 113h64z" horiz-adv-x="1000" />
<glyph glyph-name="rtf" unicode="&#xe847;" d="m774 547c0 3-1 7-4 9l-145 166c0 1 0 1 0 1-1 1-2 1-3 2-1 0-1 0-1 1-1 0-2 1-3 1-1 0-1 0-1 0-1 0-2 1-3 1h-358c-17 0-30-14-30-30v-696c0-16 13-30 30-30h488c17 0 30 14 30 30v543c0 1 0 1 0 2z m-365-527c-3 5-7 18-12 38-4 20-11 26-26 26h-11v-64h-37v161c12 2 30 3 49 3 25 0 41-3 53-13 10-7 15-19 15-34 0-21-15-35-29-40v-1c12-4 18-15 22-30 5-18 10-40 13-46h-37v0z m171 132h-45v-132h-37v132h-44v31h126v-31z m119 1h-63v-38h59v-30h-59v-65h-37v163h100v-30z m-443 72v473h343v-152c0-8 6-14 15-14h130l0-307h-488z m120-68c-9 0-14-1-16-1v-45h14c19 0 30 9 30 23 0 15-11 23-28 23z m192 401h-17v25l-43 43h-176v-301h59v-67h219v258l-42 42z m3-18l25-25h-25v25z m-20-186c0-1 0-3 0-4v4z m-40 253l25-24h-25v24z m-169-271v279h158v-43h40v-236h-198v0z m258-67h-198v56h149v18h34v14h-34v34h34v15h-34v36h34v15h-34v90h9v-43h40v-235h0z m-223 269h30l3-28h12l-13 87h-12l-46-87h12l14 28z m17 34c2 5 5 10 7 16h0c1-6 1-12 2-17l3-25h-25l13 26z m43-20h95v-14h-95v14z m0-37h95v-15h-95v15z m-77-37h172v-14h-172v14z m0-35h74v-15h-74v15z m0-37h74v-15h-74v15z m0-38h170v-15h-170v15z m55-59h170v-14h-170v14z m79 85l-3 9c-25 68-41-7-41-7l-1-5h73 4c-21 41-32 3-32 3z" horiz-adv-x="1000" />
<glyph glyph-name="like" unicode="&#xe848;" d="m501 37l-1 0c0 0-1 0-1 0-9 0-18 4-24 10-50 50-100 100-149 150-46 47-93 94-140 141-17 18-31 38-40 61-10 23-15 48-15 73 0 51 20 99 56 135 36 36 84 56 135 56 25 0 50-5 73-15 23-10 44-24 62-42l43-43 43 43c18 18 39 32 62 42 23 10 48 15 73 15 51 0 99-20 135-56 36-36 56-84 56-135 0-25-5-50-15-73-9-23-23-43-40-61-47-47-94-94-140-141-50-50-99-100-148-150-7-6-16-10-25-10z m-1 25c1 0 1 0 1 0l0 0c3 0 5 1 7 3 50 49 99 99 148 149 47 47 94 94 141 141 15 16 27 33 35 53 8 21 13 42 13 64 0 44-18 86-49 118-31 31-73 48-118 48-22 0-43-4-63-12-21-9-39-21-55-37l-51-52c-3-2-6-3-9-3l0 0c-3 0-6 1-9 3l-51 52c-16 16-34 28-54 37-21 8-42 12-64 12-45 0-86-17-118-48-31-32-49-73-49-118 0-22 5-43 13-64 8-20 20-37 36-53 46-47 93-94 139-141 50-50 99-100 149-149 2-2 4-3 7-3 0 0 1 0 1 0z" horiz-adv-x="1000" />
<glyph glyph-name="message" unicode="&#xe849;" d="m819 728h-637c-33 0-59-27-59-60v-454c0-32 25-58 57-59 0 0 1-1 2-1h358l178-178c3-2 6-4 10-4 1 0 3 1 5 1 5 3 8 8 8 13v168h78c0 0 1 0 1 1 32 1 57 27 58 59v455c-1 32-27 59-59 59z m31-515c0-17-14-31-31-31-1 0-2 0-2 0h-89c-8 0-14-7-14-14v-149l-159 159c-2 2-6 4-9 4h-363c0 0-1 0-1 0-18 0-32 14-32 32v455c0 17 14 32 32 32h637c17 0 31-15 31-33l0-455 0 0z" horiz-adv-x="1000" />
<glyph glyph-name="reply" unicode="&#xe84a;" d="m629 535h-442l64 64c5 5 5 13 0 18-5 5-13 5-18 0l-86-86c-2-2-4-6-4-9 0-3 2-7 4-9l86-86c2-2 6-4 9-4 3 0 7 2 9 4 5 5 5 13 0 18l-64 64h442c112 0 202-90 202-202 0-111-90-202-202-202l-69 0c-7 0-10-7-10-14s3-13 10-13l69 1c126 0 228 102 228 228 0 126-102 228-228 228z" horiz-adv-x="1000" />
<glyph glyph-name="remove-circle" unicode="&#xe84b;" d="m787 637c-158 159-415 159-574 0s-159-415 0-574c158-159 416-159 574 0s159 416 0 574z m-24-550c-145-145-381-145-526 0s-145 381 0 526 381 145 526 0c146-145 146-381 0-526z m-98 451l-165-165-164 164-23-23 164-164-164-164 23-23 164 164 165-164 23 23-165 164 165 165-23 23z" horiz-adv-x="1000" />
<glyph glyph-name="remove" unicode="&#xe84c;" d="m665 538l-165-165-164 164-23-23 164-164-164-164 23-23 164 164 165-164 23 22-165 165 165 165-23 23z" horiz-adv-x="1000" />
<glyph glyph-name="reload" unicode="&#xe84d;" d="m438 725c206 0 374-167 374-374l108 103 17-18-137-133-130 133 18 18 99-103c0 193-157 349-349 349-193 0-350-157-350-350s157-350 350-350c153 0 284 100 331 238l24-7c-50-149-190-256-355-256-207 0-375 168-375 375s168 375 375 375z" horiz-adv-x="1000" />
<glyph glyph-name="refresh" unicode="&#xe84e;" d="m246 129c-122 128-117 332 12 454s333 118 455-11l80 76 49-286-267 79 102 96c-104 109-276 113-384 10-109-103-114-275-11-384 104-108 275-114 384-10l35-36c-130-123-333-117-455 12z" horiz-adv-x="1000" />
<glyph glyph-name="quote" unicode="&#xe84f;" d="m500 724c-214 0-387-153-387-342 0-95 45-182 117-244-16-91-118-128-111-153 86-35 258 43 300 63 26-5 53-7 81-7 214 0 387 153 387 341 0 189-173 342-387 342z m-27-356c0-93-41-145-122-155-1 0-1 0-1 0-1 0-2 0-2 1-1 1-2 2-2 3v47c0 1 1 3 2 3 37 20 56 52 57 97h-55c-2 0-4 2-4 4v119c0 2 2 4 4 4h119c2 0 4-2 4-4v-119z m210 0c0-91-36-138-122-155 0 0 0 0-1 0 0 0-1 0-2 1-1 1-1 2-1 3v47c0 1 0 3 2 3 37 20 55 52 56 97h-55c-2 0-3 2-3 4v119c0 2 1 4 3 4h119c2 0 4-2 4-4v-119z" horiz-adv-x="1000" />
<glyph glyph-name="pushpin" unicode="&#xe850;" d="m675 579c-1-20-9-44-25-55l-130-84c0 0-5-4-11-7-6-4-23 3-40 13-13 7-26 12-36 15-19 5-52 6-70 0-58-17-59-82-27-155 8-18 4-41-12-53-81-62-187-155-236-199-15-13-12-17 6-9 64 32 182 99 266 152 17 11 40 7 52-9 48-59 101-98 149-73 93 48 37 150 43 168 2 4 11 13 26 24 31 24 84 59 117 80 17 11 45 13 64 8 89-21 107 52 110 70 6 41-87 200-152 194-76-7-93-49-94-80z" horiz-adv-x="1000" />
<glyph glyph-name="profile" unicode="&#xe851;" d="m500 756c-224 0-406-182-406-406s182-406 406-406 406 182 406 406-182 406-406 406z m0-33c205 0 373-167 373-373 0-91-33-174-87-239-39 16-129 47-182 63-4 1-5 2-5 21 0 16 7 32 13 45 7 15 15 40 18 62 8 10 19 29 26 64 7 32 4 44 0 54-1 2-1 3-1 4-2 7 0 46 6 75 3 21-1 65-30 101-17 23-51 50-114 54h-34c-61-4-95-31-113-54-29-36-33-80-30-101 6-29 8-68 7-75-1-2-1-3-2-4-4-11-7-22 0-54 7-36 18-54 26-64 3-22 11-47 18-62 5-10 8-25 8-46 0-19-1-19-6-21-54-16-141-47-176-62-55 65-87 148-87 239 0 205 167 373 372 373z" horiz-adv-x="1000" />
<glyph glyph-name="printer" unicode="&#xe852;" d="m845 631h-64v94h-562v-94h-62c-34 0-63-27-63-61v-309c0-34 29-63 63-63h93v-223h500v223h95c34 0 61 29 61 63v309c0 34-27 61-61 61z m-595 63h500v-63h-500v63z m469-688h-438v375h438v-375z m156 255c0-17-13-32-30-32h-95v184h-500v-184h-93c-17 0-32 15-32 32v309c0 17 15 30 32 30h687 1c17 0 30-13 30-30v-309z" horiz-adv-x="1000" />
<glyph glyph-name="pptx" unicode="&#xe853;" d="m774 547c0 3-1 7-4 9l-145 166c0 1 0 1 0 1-1 1-2 1-3 2-1 0-1 0-1 1-1 0-2 1-3 1-1 0-1 0-1 0-1 0-2 1-3 1h-358c-17 0-30-14-30-30v-696c0-16 13-30 30-30h488c17 0 30 14 30 30v543c0 1 0 1 0 2z m-412-454c-10-10-25-14-43-14-4 0-8 0-10 0v-47h-30v131c9 2 22 3 41 3 18 0 32-3 41-10 8-7 14-18 14-31s-5-25-13-32z m116 0c-11-10-26-14-44-14-4 0-7 0-10 0v-47h-30v131c9 2 22 3 41 3 19 0 32-3 41-10 8-7 14-18 14-31s-4-25-12-32z m124 47h-37v-108h-30v108h-36v25h103v-25z m90-108l-12 24c-5 9-8 16-12 24h0c-3-8-7-15-11-24l-11-24h-34l38 67-37 66h35l12-24c3-8 6-15 10-22h0c3 8 6 14 9 22l11 24h35l-38-65 40-68h-35z m-436 193v473h343v-152c0-8 6-14 15-14h130l0-307h-488z m65-82c-6 0-10 0-12-1v-39c2-1 5-1 10-1 16 0 26 8 26 22 0 12-9 19-24 19z m116 0c-7 0-11 0-13-1v-39c3-1 6-1 10-1 16 0 26 8 26 22 0 12-8 19-23 19z m-34 342c-71-5-127-64-127-136 0-16 4-32 9-47l118 51v132z m-112-197c22-44 68-74 121-74 46 0 86 22 111 57l-112 70-120-53z m129 198v-130l113-71c11 20 17 42 17 66 0 73-57 133-130 135z m156-78h148v-22h-148v22z m0-56h148v-22h-148v22z m0-56h148v-22h-148v22z" horiz-adv-x="1000" />
<glyph glyph-name="ppt" unicode="&#xe854;" d="m496 161c-8 0-13-1-16-2v-52c3-1 7-1 13-1 22 0 35 11 35 29 0 16-12 26-32 26z m-153 0c-8 0-13-1-16-2v-52c3-1 7-1 13-1 22 0 35 11 35 29 0 16-12 26-32 26z m428 383c0 4-2 7-4 10l-144 164c0 0 0 0 0 0-1 1-2 2-3 3 0 0 0 0-1 0-1 1-2 1-3 1 0 0 0 1 0 1-2 0-3 0-4 0h-353c-16 0-30-13-30-29v-688c0-16 14-29 30-29h482c17 0 30 13 30 29v537c0 0 0 1 0 1z m-373-450c-14-13-34-19-58-19-5 0-10 0-13 1v-63h-40v175c12 2 30 3 54 3 25 0 43-4 55-14 11-9 18-24 18-41 0-17-5-32-16-42z m153 0c-14-13-34-19-58-19-5 0-10 0-13 1v-63h-40v175c12 2 30 3 54 3 25 0 43-4 55-14 11-9 18-24 18-41 0-17-5-32-16-42z m165 62h-48v-143h-41v143h-47v34h136v-34h0z m-457 70v468h339v-150c0-8 6-14 14-14h129v-304h-482z m218 307c-66 0-119-54-119-120 0-66 53-119 119-119 66 0 120 53 120 119h-120v120z m17-101v0h119c0 34-14 64-36 86l-83-86z m-2 21l85 85c-24 24-54 35-85 35l0-120 0 0z" horiz-adv-x="1000" />
<glyph glyph-name="plus-strong" unicode="&#xe855;" d="m500 725c-207 0-375-168-375-375 0-207 168-375 375-375 207 0 375 168 375 375 0 207-168 375-375 375z m0-672c-164 0-297 133-297 297 0 164 133 297 297 297 164 0 297-133 297-297 0-164-133-297-297-297z m229 297c0-32-26-59-59-59h-111v-111c0-32-27-59-59-59-32 0-59 27-59 59v111h-111c-32 0-59 27-59 59 0 32 27 59 59 59h111v111c0 32 27 59 59 59 32 0 59-27 59-59v-111h111c33 0 59-27 59-59z" horiz-adv-x="1000" />
<glyph glyph-name="user" unicode="&#xe856;" d="m511 732c-7 0-13-1-16-1-3 0-9 1-17 1-25 0-74-6-112-44-35-36-53-90-53-162 0-124 48-197 88-237 44-43 88-56 90-57 1 0 3 0 4 0 1 0 3 0 4 0 2 1 197 55 188 294-8 191-136 206-176 206z m-16-470c-24 9-152 65-153 264 0 64 15 111 45 141 31 31 70 35 91 35 9 0 15 0 15 0 1-1 3-1 4 0 0 0 6 0 14 0 42 0 140-17 146-177 8-199-135-254-162-263z m153 25c-3-8 2-16 10-18 39-10 136-42 189-111v-160h-694v160c53 69 148 100 187 110 7 3 12 11 10 18-2 8-10 13-18 11-53-14-150-50-205-126-2-2-3-5-3-8v-180c0-8 7-15 15-15h722c9 0 15 7 15 15v180c0 3-1 6-3 8-58 80-164 115-207 127-8 2-16-3-18-11z" horiz-adv-x="1000" />
<glyph glyph-name="plus-circle" unicode="&#xe857;" d="m500 756c-224 0-406-182-406-406s182-406 406-406 406 182 406 406-182 406-406 406z m0-779c-205 0-372 168-372 373s167 373 372 373 373-168 373-373-168-373-373-373z m16 623h-33v-234h-233v-33h233v-233h33v233h234v33h-234v234z" horiz-adv-x="1000" />
<glyph glyph-name="plus" unicode="&#xe858;" d="m879 323h-355v-352h-51v352h-352v51h352v355h51v-355h355v-51z" horiz-adv-x="1000" />
<glyph glyph-name="pie-chart" unicode="&#xe859;" d="m541 732h-14v-378h353l1 13c1 8 1 16 1 23 0 188-153 342-341 342z m313-350h-299v322c166-8 299-145 299-314 0-2 0-5 0-8z m-381 269h-14c-188 0-341-153-341-341 0-188 153-342 341-342 179 0 329 140 341 319l1 15h-328v349l0 0z m298-377c-18-157-152-278-312-278-173 0-313 141-313 314 0 168 133 306 300 313v-349h325l0 0z" horiz-adv-x="1000" />
<glyph glyph-name="picture" unicode="&#xe85a;" d="m870 734h-740c-8 0-14-6-14-14v-740c0-8 6-14 14-14h740c8 0 14 6 14 14v740c0 8-6 14-14 14z m-14-740h-712v712h712l0-712 0 0z m-633 65h555c3 0 7 1 9 4 3 2 4 6 4 10v555c0 7-6 13-13 13h-555c-8 0-14-6-14-13v-370-185c0-8 6-14 14-14z m13 555h528v-356c0 0 0 0 0 0 0-44-36-79-79-79-20 0-38 8-52 21l64 96c3 4 3 10 1 14-3 5-7 8-12 8h-370c-6 0-10-3-13-8-2-4-2-10 1-14l64-96c-15-13-33-21-53-21-43 0-79 35-79 79v356h0z m379-390c0 1-2 3-2 4-1 2-2 4-2 6-3 7-5 15-5 24 0 7-6 13-13 13-8 0-14-6-14-13 0-44-36-79-79-79-43 0-79 35-79 79 0 7-6 13-13 13-8 0-14-6-14-13 0-9-2-16-5-24 0-2-1-4-2-5 0-2-1-3-2-5l-44 66h319l-45-66z m-379-38c20-21 48-35 79-35 31 0 61 14 81 38 4 6 8 11 11 17 19-33 53-55 93-55 40 0 74 22 93 55 3-6 7-12 11-17 0 0 0 0 0 0 21-24 50-38 81-38 31 0 59 14 79 35v-100h-528v100h0z m126 150h277c0 0 1 0 1 0 8 0 14 7 14 14 0 5-2 9-6 11l-136 182c-6 7-17 7-23 0l-138-185c-3-4-4-9-2-14 3-5 8-8 13-8z m138 176l112-148h-223l111 148z" horiz-adv-x="1000" />
<glyph glyph-name="petition-sign" unicode="&#xe85b;" d="m600 72c-6 0-12-6-12-13 0-39-32-71-71-71-34 0-63 26-69 59h50c7 0 13 5 13 12v250c0 5-4 8-8 10v280c0 2-1 4-1 6l-18 36 18 36c2 5 1 10-3 14l-41 42c-5 5-13 5-18 0l-41-42c-4-4-5-9-3-14l18-36-18-36c0-2-1-4-1-6v-280c-4-2-8-5-8-10v-250c0-7 6-12 13-12h23c6-47 46-83 94-83 53 0 96 43 96 95 0 7-6 13-13 13z m-180 524l19 39c2 4 2 8 0 11l-17 34 27 27 27-27-17-34c-2-3-2-7 0-11l19-39v0h-58v0l0 0z m0-25h58v-17h-58v17z m0-42h58v-208h-58v208z m-8-457v224h74v-224h-74z" horiz-adv-x="1000" />
<glyph glyph-name="petition" unicode="&#xe85c;" d="m495 67c2-2 4-3 7-3 6 0 12 5 18 10l23 18c3 1 6 2 9 3 1 0 2-1 3-2l7-4 10 14-7 5c0 0 0 0 0 0 2 7 1 16-3 24-7 11-22 23-38 21-11-1-16-6-18-11-5-11 1-25 6-32 0-1 0-1-1-2-2 1-4 1-7 1-26 3-31 9-32 11-2 2 1 8 3 12 3 7 7 16 2 24-4 8-15 10-24 10-18 2-26-5-30-12-13-23 16-69 22-78l15 9c-12 19-27 50-22 60 2 4 9 4 14 4 7-1 9-2 10-2 0-1-2-5-3-7-4-8-8-18-3-29 6-10 19-16 44-19-12-18-8-21-5-25z m27 68c0 0 1 0 4 1 0 0 0 0 1 0 6 0 15-6 19-14 1-1 2-3 2-5l-1 1-12-9c0 0-1-1-2-1l1 1-4 5c-6 8-10 18-8 21z m6-98l-15 10c2 2 29 39 74 35l-1-18c-36 3-58-27-58-27z m69 26l3 18 17-2-2-18-18 2z m102 140l22 22v-248h-558v746h558v-290l-35-35v290h-488v-676h488v178l8 8 5 6v-1l0 0z m-139 432v-35h-235v35h235z m60-111h-367v20h367v-20z m0-59h-367v19h367v-19z m0-61h-367v19h367v-19z m0-62h-367v19h367v-19z m217 48l-31-31-67 66 31 32 67-67z m-105 28l67-66-152-151-66 66 151 151z m-103-236l-86-19 19 85 7 7 67-66-7-7z" horiz-adv-x="1000" />
<glyph glyph-name="pdf" unicode="&#xe85d;" d="m489 158c-9 0-15-1-19-1v-119c4 0 10 0 15 0 37-1 61 20 61 63 0 37-22 57-57 57z m-158 1c-8 0-14-1-17-2v-53c4-1 8-1 14-1 22 0 35 11 35 29 0 17-11 27-32 27z m444 389c0 3-1 7-3 9l-147 167c0 0 0 0 0 1-1 1-2 1-3 2 0 0 0 0-1 1-1 0-2 1-3 1 0 0 0 0 0 0-2 0-3 1-4 1h-359c-17 0-30-14-30-30v-700c0-16 13-30 30-30h491c16 0 29 14 29 30v546c0 1 0 1 0 2z m-388-458c-14-13-35-19-59-19-5 0-10 1-14 1v-64h-40v178c12 2 30 3 55 3 25 0 43-4 55-14 12-9 19-24 19-42 0-17-5-32-16-43z m172-61c-19-16-48-23-83-23-21 0-36 1-47 2v178c15 2 35 3 56 3 34 0 56-6 74-19 18-14 30-36 30-68 0-34-12-58-30-73z m167 126h-69v-42h65v-33h-65v-72h-41v180h110v-33z m-471 69v476h344v-153c0-8 7-14 15-14h132l0-309h-491z m398 186c-1 0-22 2-54 2-10 0-21-1-31-1-63 48-115 96-143 122 0 3 1 6 1 7 4 39 0 65-12 78-8 9-19 11-31 8-7-2-21-9-25-23-5-16 3-35 23-58 0 0 7-7 20-19-8-39-29-122-40-162-24-12-44-28-59-46l-1-1-1-1c-2-4-9-21-4-35 3-6 8-11 15-14l1 0c0 0 2 0 5 0 12 0 43 6 59 67l4 15c58 28 129 37 181 39 27-19 54-38 80-54l0 0c2-1 13-6 26-6l0 0c19 0 33 11 38 31l0 2c2 11-1 22-8 30-15 17-42 19-44 19z m-336-121c0 0 0 0 0 0-1 3 0 11 3 16 9 10 20 20 33 29-13-41-31-45-36-45z m81 271l0 0c-20 22-20 33-19 36 2 6 10 9 10 9 4 1 6 1 8-2 5-5 9-21 8-50-5 5-7 7-7 7z m-11-183l1 1 0 0c9 38 23 94 32 129l0 0 0 0c26-24 66-60 114-97l-1 0 1-1c-45-4-99-13-147-32z m296-13c-3-12-10-14-16-14l0 0c-7 0-14 3-15 4-18 11-36 23-54 35 0 0 1 0 1 0 31 0 51-2 52-2 5 0 22-2 29-11 3-3 4-7 3-12z" horiz-adv-x="1000" />
<glyph glyph-name="ok-circle" unicode="&#xe85e;" d="m664 504l-243-246-93 92-34-34 109-110c5-5 12-8 17-8s13 3 18 8l261 263-35 35z m-164 252c-224 0-406-182-406-406s182-406 406-406 406 182 406 406-182 406-406 406z m0-779c-205 0-372 168-372 373 0 205 167 373 372 373 205 0 373-167 373-373 0-205-168-373-373-373z" horiz-adv-x="1000" />
<glyph glyph-name="ok" unicode="&#xe85f;" d="m415 139c-7-7-17-12-25-12-9 0-19 6-26 12l-159 160 50 51 135-135 356 358 49-51-380-383z" horiz-adv-x="1000" />
<glyph glyph-name="navicon" unicode="&#xe860;" d="m188 379h625v-62h-625v62z m0 188h625v-63h-625v63z m0-375h625v-63h-625v63z" horiz-adv-x="1000" />
<glyph glyph-name="edit" unicode="&#xe861;" d="m121 350c0-209 170-379 379-379 209 0 379 170 379 379s-170 379-379 379c-209 0-379-170-379-379z m46 0c0 184 149 333 333 333 184 0 333-149 333-333 0-184-149-333-333-333-184 0-333 149-333 333z m388 77l17-17 16-16-168-168-47-15 14 48 168 168z m58 58l33-33-33-33-33 33 33 33z" horiz-adv-x="1000" />
<glyph glyph-name="messages" unicode="&#xe862;" d="m125 725h500v-187h31v218h-562v-437h219v31h-188v375z m219-219v-437h317l125-125h27v125h93v437h-562z m531-406h-94v-107l-107 107h-299v375h500v-375z" horiz-adv-x="1000" />
<glyph glyph-name="minus" unicode="&#xe863;" d="m750 333h-500v34h500v-34z" horiz-adv-x="1000" />
<glyph glyph-name="sign-out" unicode="&#xe864;" d="m146 633h406v20h-426v-606h426v20h-406v566z m515-70l-20-19 180-180h-595v-28h595l-180-179 20-20 213 213-213 213z" horiz-adv-x="1000" />
<glyph glyph-name="map-location" unicode="&#xe867;" d="m500 729c-120 0-217-97-217-217 0-84 78-239 149-361-80-13-133-47-133-87 0-53 87-93 201-93 115 0 201 40 201 93 0 40-53 74-133 87 71 122 150 277 150 361 0 120-98 217-218 217z m0-27c105 0 190-86 190-190 0-86-98-266-156-365-14-24-26-44-34-57-8 13-20 33-34 57-58 99-156 279-156 365 0 104 85 190 190 190z m173-638c0-31-71-66-173-66-102 0-173 35-173 66 0 23 44 51 119 61 4-6 7-11 10-16 2-3 4-7 6-9 4-7 7-13 11-18 1-2 2-4 3-5 3-6 6-11 8-14 0 0 1-1 1-1 2-4 3-6 3-6l12-18 12 18c0 0 1 2 3 5 0 1 1 2 2 3 2 4 4 7 7 13 1 1 2 2 3 4 3 5 7 11 12 19 1 2 3 5 4 8 4 6 7 11 11 17 75-10 119-38 119-61z m-37 448c0 75-61 136-136 136-75 0-136-61-136-136 0-75 61-136 136-136 75 0 136 61 136 136z m-244 0c0 60 48 108 108 108 60 0 108-48 108-108 0-60-48-109-108-109-60 0-108 49-108 109z" horiz-adv-x="1000" />
<glyph glyph-name="mail" unicode="&#xe868;" d="m921 604c0 1-1 3-2 4-1 2 0 3-1 5-1 0-1 0-1 0-1 2-3 2-5 3-2 1-3 2-5 2-1 0-1 1-1 1h-812c0 0 0-1-1-1-2 0-3-1-5-2-2-1-3-1-5-3 0 0 0 0-1 0-1-2 0-3-1-5-1-1-2-3-2-4v-508c0-1 1-3 2-4 1-2 0-3 1-5 1 0 1 0 1 0 3-3 7-6 11-6h812c4 0 8 3 11 6 0 0 0 0 1 0 1 2 0 3 1 5 1 1 2 3 2 4v508z m-812-31l288-223-288-223v446z m461-211c0 0-1 0-1 0l-65-51-4-3-3 2-66 52c-1 0-1 0-1 0l-292 227h724l-292-227z m-149-31l70-54c1-1 3-1 5-2 1 0 2-1 3-1 0 0 1 0 1 0 0 0 1 0 1 0 1 0 2 1 3 1 2 1 4 1 5 2l70 54 283-220h-724l283 220z m182 19l288 223v-446l-288 223z" horiz-adv-x="1000" />
<glyph glyph-name="lock" unicode="&#xe869;" d="m687 408v129c0 104-84 188-187 188-103 0-187-84-187-188v-129h-101v-433h576v433h-101z m-345 129c0 88 71 159 158 159s158-71 158-159v-129h-316v129z m417-533h-518v375h518v-375z m-201 231c0 32-26 57-58 57s-58-25-58-57c0-27 19-50 44-56v-74c0-8 6-14 14-14 8 0 14 6 14 14v74c25 6 44 29 44 56z m-58-29c-16 0-29 13-29 29s13 29 29 29 29-13 29-29-13-29-29-29z" horiz-adv-x="1000" />
<glyph glyph-name="list-ul" unicode="&#xe86a;" d="m197 726c-41 0-75-34-75-76 0-41 34-75 75-75 42 0 76 34 76 75 0 42-34 76-76 76z m0-298c-41 0-75-34-75-75 0-41 34-75 75-75 42 0 76 34 76 75 0 41-34 75-76 75z m0-303c-41 0-75-34-75-75 0-42 34-76 75-76 42 0 76 34 76 76 0 41-34 75-76 75z m203 538h453v-25h-453v25z m-25 25h503v-75h-503v75z m25-334h453v-25h-453v25z m-25 24h503v-74h-503v74z m25-311h453v-25h-453v25z m-25 24h503v-74h-503v74z" horiz-adv-x="1000" />
<glyph glyph-name="list-ol" unicode="&#xe86b;" d="m365 648c0 15 12 28 27 28h452c16 0 28-13 28-28 0-15-12-27-28-27h-452c-15 0-27 12-27 27z m27-162h294c15 0 27 12 27 28 0 15-12 27-27 27h-294c-15 0-27-12-27-27 0-16 12-28 27-28z m452-290h-452c-15 0-27-13-27-28 0-15 12-27 27-27h452c16 0 28 12 28 27 0 15-12 28-28 28z m-158-135h-294c-15 0-27-12-27-27 0-15 12-28 27-28h294c15 0 27 13 27 28s-12 27-27 27z m-492 412h44v221h-36c-1-12 0-21-9-28-9-7-28-10-45-10h-6v-31h52v-152z m-16-424l55 40c19 13 31 25 37 37 6 11 9 23 9 35 0 21-7 38-21 51-14 13-32 19-55 19-22 0-39-6-53-19-13-13-19-33-19-59h42c0 16 3 26 8 32 6 6 13 9 23 9 10 0 17-3 23-9 6-6 8-13 8-22 0-9-2-18-7-25-6-7-20-19-44-37-20-15-47-33-55-46l-1-45h152v39h-102l0 0z" horiz-adv-x="1000" />
<glyph glyph-name="link" unicode="&#xe86c;" d="m840 690c-51 50-132 50-183 0l-137-138c-40-39-48-98-26-146l-50-50c-48 22-107 14-146-26l-138-137c-50-51-50-132 0-183 51-50 132-50 183 0l137 138c41 41 49 103 23 152l47 47c49-26 111-18 152 23l138 137c50 51 50 132 0 183z m-402-500l-137-137c-27-28-71-28-98 0-28 27-28 71 0 98l137 137c15 16 36 22 56 20l-36-37c-16-15-16-41 0-57 15-16 41-16 57 0l40 40c5-22-1-47-19-64z m360 359l-138-137c-17-18-42-24-64-19l25 25c16 16 16 41 0 57-16 16-42 16-58 0l-21-21c-2 20 5 41 20 56l137 138c28 27 72 27 99 0 27-27 27-71 0-99z" horiz-adv-x="1000" />
<glyph glyph-name="line-chart" unicode="&#xe86d;" d="m114-5v734h-25v-758h822v24h-797z m365 382l114-134 163 212v-77h41v172l-150-57 14-38 61 23-131-170-110 129-258-261 29-29 227 230z" horiz-adv-x="1000" />
<glyph glyph-name="italics" unicode="&#xe86e;" d="m806 702c-6 0-10 0-14 0h-21c-38 0-62-7-70-21-14-21-33-64-59-129l-192-506c-1-3-2-6-3-9-2-6-1-25 15-32 1-1 3-1 4-2 16-6 40-6 51-7 6 0 13 0 21-1 11-1 17-4 17-9 0-6-6-9-19-9-64 1-155 1-275 1-42 0-66 0-73 1-6 1-10 4-10 8 0 6 12 10 36 10 33 0 55 3 66 6 8 3 15 7 21 12 10 8 21 30 28 47 5 12 10 25 16 40l184 471c26 65 39 100 39 107 0 15-14 22-42 22h-53c-10 0-15 4-15 11 0 7 5 10 15 10h12c5 0 27 0 64 0h198c5 0 10 0 13 0h50c8 0 12-3 12-10 0-7-6-11-16-11z" horiz-adv-x="1000" />
<glyph glyph-name="invite" unicode="&#xe86f;" d="m319 609h181c7 0 14 6 14 14 0 7-7 13-14 13h-181c-7 0-13-6-13-13 0-8 6-14 13-14z m0-182h362c7 0 13 6 13 13 0 8-6 14-13 14h-362c-7 0-13-6-13-14 0-7 6-13 13-13z m0 90h181c7 0 14 6 14 14s-7 13-14 13h-181c-7 0-13-6-13-13 0-8 6-14 13-14z m556-77c0 4-2 7-5 10 0 0 0 1 0 1l-86 66v194c0 8-6 14-13 14h-542c-7 0-13-6-13-14v-194l-86-66c0 0 0-1 0-1-3-3-5-6-5-10v-451c0-1 1-2 1-3 0 0 0-1 0-2 0 0 1 0 1-1 0-1 1-2 3-4 0 0 1-1 2-2 0 0 0 0 1-1 2 0 4-1 6-1h722c2 0 4 1 6 1 1 1 1 1 1 1 1 1 2 2 2 2 1 2 2 3 3 4 0 1 1 1 1 1 0 1 0 1 0 2 0 1 1 2 1 3v451h0z m-27-27v-397l-256 199 256 198z m-9 27l-55-42v85l55-43z m-596 258h515v-188-133l-164-127-94-73-94 73-163 127v133 188h0z m-91-285l256-198-256-199v397z m64 70v-85l-55 42 55 43z m-38-481l252 196 62-48c2-2 5-3 8-3 3 0 6 1 8 3l62 48 252-196h-644z" horiz-adv-x="1000" />
<glyph glyph-name="inactive" unicode="&#xe870;" d="m486 354h-239c-9 0-18 6-21 14-4 9-1 19 5 25l199 195h-183c-12 0-23 11-23 23 0 13 11 23 23 23h239c9 0 17-5 21-14 3-9 1-18-5-25l-199-195h183c12 0 23-10 23-23 0-13-11-23-23-23z m267-47h-112l128 126c7 7 9 17 5 25-3 9-12 15-21 15h-169c-12 0-23-11-23-23 0-13 11-23 23-23h113l-129-127c-6-6-8-16-5-25 4-8 12-14 21-14h169c12 0 23 10 23 23s-11 23-23 23z m-259-195h-79l95 92c7 7 8 17 5 26-4 8-12 14-21 14h-135c-12 0-23-10-23-23s11-23 23-23h79l-95-93c-6-6-8-16-5-25 4-8 12-14 21-14h135c12 0 23 10 23 23s-11 23-23 23z" horiz-adv-x="1000" />
<glyph glyph-name="highlight" unicode="&#xe871;" d="m794 592l-88 87c-34 34-89 34-123 0l-319-318c-24-25-31-61-20-92l-63-180c-3-9 13-25 22-22l181 63c31-11 67-5 91 20l319 319c34 33 34 89 0 123z m-68-107l-238-238c-14-15-39-14-54 2l-71 71c-16 15-17 39-2 54l238 238c14 14 39 13 54-2l71-71c16-16 17-40 2-54z m-505-439h374v-51h-374v51z" horiz-adv-x="1000" />
<glyph glyph-name="help" unicode="&#xe872;" d="m500 756c-224 0-406-182-406-406s182-406 406-406 406 182 406 406-182 406-406 406z m0-779c-205 0-372 168-372 373 0 205 167 373 372 373 205 0 373-167 373-373 0-205-168-373-373-373z m7 588c-84 0-131-40-132-122h37c-1 60 30 91 93 91 46 0 84-31 84-78 0-29-17-54-38-74-45-41-57-70-59-126h37c2 50 1 60 45 104 30 28 51 55 51 98 0 67-53 107-118 107z m1-364c-18 0-33-15-33-33s15-33 33-33 34 15 34 33c0 18-15 33-34 33z" horiz-adv-x="1000" />
<glyph glyph-name="hashtag" unicode="&#xe873;" d="m611 678h218c17 0 30-14 30-31v-211c0-12-4-23-12-32l-418-404 0 0-1-1c-5-5-13-8-22-8-8 0-16 3-21 8l-204 205c-6 5-9 13-9 21s3 17 9 22l0 1 0 0 399 417c8 8 19 13 31 13m0 31c-20 0-39-7-54-22l-398-418c-12-12-18-28-18-44 0-16 6-32 18-44l204-204c12-12 28-18 44-18 16 0 32 6 44 18l418 405c13 14 22 33 22 54v211c0 35-28 62-62 62h-218l0 0z m92-125c35 0 63-28 63-62s-28-63-63-63-62 28-62 63 28 62 62 62m0 32c-52 0-94-42-94-94s42-94 94-94 94 42 94 94-42 94-94 94l0 0z" horiz-adv-x="1000" />
<glyph glyph-name="news-1" unicode="&#xe874;" d="m251 282h207c5 0 8 4 8 8v114c0 4-3 8-8 8h-207c-5 0-9-4-9-8v-114c0-4 4-8 9-8z m8 113h191v-97h-191v97z m620 193c0 16-12 23-23 23-1 0-1 0-1 0l-640 0c-8 0-20-6-20-20 0-5 0-113 0-226h-66c-3 0-5-1-7-4-1-2-2-4-1-7l74-258c1-4 4-7 8-7h668c5 0 8 4 8 8 0 20 1 475 0 491z m-684-240c0-71 0-143 0-192l-55 192h55z m668-243h-651v252c0 0 0 1 0 1 0 116 0 228 0 233 0 1 0 3 3 4h640c0 0 0 0 1 0 7 0 7-5 7-7 0-15 0-419 0-483z m-56 385h-556c-4 0-8-4-8-8 0-5 4-9 8-9h556c5 0 8 4 8 9 0 4-3 8-8 8z m0-73h-317c-4 0-8-4-8-8s4-9 8-9h317c5 0 8 4 8 9s-3 8-8 8z m0-73h-317c-4 0-8-4-8-8 0-5 4-9 8-9h317c5 0 8 4 8 9 0 4-3 8-8 8z m0-73h-317c-4 0-8-4-8-8 0-5 4-8 8-8h317c5 0 8 3 8 8 0 4-3 8-8 8z m0-73h-556c-4 0-8-4-8-8 0-5 4-8 8-8h556c5 0 8 3 8 8 0 4-3 8-8 8z" horiz-adv-x="1000" />
<glyph glyph-name="file-empty" unicode="&#xe875;" d="m772 534c0 3-1 6-3 9l-183 183c-3 2-6 3-9 3-1 0-1 1-1 1h-335c-7 0-13-6-13-14v-732c0-8 6-14 13-14h518c7 0 14 6 14 14v549c-1 1-1 1-1 1z m-183 149l137-136h-137v136z m-334-686v706h307v-170c0-7 6-14 14-14h169v-522h-490l0 0z" horiz-adv-x="1000" />
<glyph glyph-name="file" unicode="&#xe876;" d="m769 543l0 0-184 183c-2 3-6 4-9 4h-335c-7 0-13-6-13-14v-732c0-8 6-14 13-14h518c8 0 14 6 14 14v549c0 4-2 7-4 10z m-180 141l137-137h-137v137z m156-687h-490v706h307v-170c0-7 6-13 14-13h169v-523z m-426 409c0-7 6-13 14-13h334c8 0 14 6 14 13 0 8-6 14-14 14h-334c-8 0-14-6-14-14z m348-85h-334c-8 0-14-6-14-14 0-7 6-13 14-13h334c8 0 14 6 14 13 0 8-6 14-14 14z m0-99h-334c-8 0-14-6-14-14 0-7 6-13 14-13h334c8 0 14 6 14 13 0 8-6 14-14 14z m0-99h-334c-8 0-14-6-14-14 0-7 6-13 14-13h334c8 0 14 6 14 13 0 8-6 14-14 14z" horiz-adv-x="1000" />
<glyph glyph-name="redditt-round" unicode="&#xe877;" d="m500-27c-208 0-377 169-377 377 0 208 169 377 377 377 208 0 377-169 377-377 0-208-169-377-377-377z m0 730c-194 0-353-159-353-353 0-194 159-353 353-353 194 0 353 159 353 353 0 194-159 353-353 353z m245-348c0 29-24 54-54 54-15 0-28-6-38-16-37 25-87 40-142 42l30 96 82-19c0-1 0-1 0-1 0-25 20-45 44-45 25 0 45 20 45 45 0 24-20 44-45 44-18 0-34-12-41-28l-88 20c-4 1-8-1-9-5l-34-106c-58-1-110-17-149-42-10 9-23 15-37 15-29 0-54-25-54-54 0-20 11-37 27-47-1-6-2-12-2-18 0-80 98-145 219-145 121 0 219 65 219 145 0 6-1 12-2 17 18 9 29 27 29 48z m-78 185c16 0 29-13 29-29 0-16-13-30-29-30-16 0-29 14-29 30 0 16 13 29 29 29z m-397-185c0 21 18 39 39 39 9 0 18-3 24-9-22-17-39-38-47-62-10 8-16 19-16 32z m229-195c-112 0-203 59-203 130 0 72 91 131 203 131 112 0 204-59 204-131 0-71-92-130-204-130z m213 162c-8 24-24 45-46 62 7 6 15 10 25 10 21 0 39-18 39-39 0-14-7-26-18-33z m-254-5c0 18-14 33-32 33s-33-15-33-33c0-17 15-32 33-32 18 0 32 15 32 32z m116 33c-17 0-32-15-32-33 0-17 15-32 32-32 18 0 33 15 33 32 0 18-15 33-33 33z m-6-118c-14-13-36-19-68-19 0 0 0 0 0 0 0 0 0 0 0 0-32 0-54 6-68 19-2 3-7 3-10 0-3-3-3-7 0-10 16-17 42-24 78-24 0 0 0 0 0 0 0 0 0 0 0 0 37 0 62 7 78 24 3 3 3 7 0 10-3 3-7 3-10 0z" horiz-adv-x="1000" />
<glyph glyph-name="eraser" unicode="&#xe878;" d="m574 104l298 298-320 320-424-424 325-315 0 0h291v23h-268l98 98z m266 298l-266-266-288 288 266 266 288-288z" horiz-adv-x="1000" />
<glyph glyph-name="drag" unicode="&#xe87a;" d="m602 105l0 0h27l-129-129-129 129h28l0 0h203z m0 490l0 0h27l-129 129-129-129h28l0 0h203z m-347-346l0 0v-28l-129 129 129 129v-27l0 0v-203z m490 0l0 0v-28l129 129-129 129v-27l0 0v-203z m-245 244c79 0 143-64 143-143s-64-143-143-143c-79 0-143 64-143 143 0 79 64 143 143 143l0 0z m0-31c-62 0-112-50-112-112 0-62 50-112 112-112 62 0 112 50 112 112 0 62-50 112-112 112z" horiz-adv-x="1000" />
<glyph glyph-name="docx" unicode="&#xe87b;" d="m771 545c0 3-1 6-4 9l-144 165c0 0 0 0 0 0-1 1-2 2-3 2 0 0 0 1-1 1-1 0-1 1-2 1-1 0-1 0-1 0-1 1-2 1-4 1h-354c-16 0-29-13-29-30v-688c0-17 13-30 29-30h484c16 0 29 13 29 30v537c0 1 0 1 0 2z m-419-482c-13-11-33-16-58-16-15 0-26 1-33 1v125c11 2 24 3 39 3 24 0 40-4 52-14 13-9 22-25 22-47 0-25-9-42-22-52z m94-17c-37 0-59 28-59 65 0 38 24 66 62 66 39 0 60-29 60-64 0-42-25-67-63-67z m147 24c9 0 18 2 24 4l4-23c-5-2-17-5-32-5-44 0-67 27-67 64 0 43 31 67 69 67 15 0 27-3 32-5l-6-23c-6 2-14 4-24 4-23 0-41-13-41-42 0-25 15-41 41-41z m115-22l-12 23c-4 9-7 15-11 23h0c-3-8-6-14-10-23l-11-23h-33l37 64-35 63h33l11-23c4-8 6-14 9-21h1c3 8 5 14 9 21l10 23h33l-36-62 38-65h-33v0z m-450 178v468h340v-150c0-8 6-14 14-14h130v-304h-484z m45-72c-6 0-11-1-13-1v-83c2-1 6-1 10-1 26 0 43 14 43 45 0 26-15 40-40 40z m145 0c-20 0-31-18-31-43 0-25 12-42 31-42 19 0 31 18 31 43 0 23-11 42-31 42z m142 325v83h-285v-203h83v-83h286v203h-84z m-202-105h-69v173h257v-68h-188v-105z m271-83h-257v173h257v-173z m-215 152c6 0 10-5 10-10 0-5-4-10-10-10-5 0-10 5-10 10 0 5 5 10 10 10z m25-6h149v-8h-149v8z m-25-30c6 0 10-4 10-10s-4-9-10-9c-5 0-10 4-10 9s5 10 10 10z m25-6h149v-7h-149v7z m-25-32c6 0 10-4 10-10 0-5-4-9-10-9-5 0-10 4-10 9 0 6 5 10 10 10z m25-6h149v-7h-149v7z m-25-30c6 0 10-4 10-10 0-5-4-9-10-9-5 0-10 4-10 9 0 6 5 10 10 10z m25-6h149v-7h-149v7z" horiz-adv-x="1000" />
<glyph glyph-name="doc" unicode="&#xe87c;" d="m508 164c-25 0-40-24-40-56 0-32 15-55 40-55 25 0 39 24 39 56 0 29-14 55-39 55z m-187-1c-8 0-14-1-17-1v-108c3 0 8 0 13 0 33-1 55 18 55 57 1 34-19 52-51 52z m449 381c-1 3-2 6-4 9l-143 164c0 0 0 0 0 0-1 1-2 2-3 2-1 0-1 1-1 1-1 0-2 1-3 1 0 0-1 0-1 0-1 1-2 1-3 1h-352c-17 0-30-13-30-29v-685c0-17 13-30 30-30h481c16 0 29 13 29 30v534c0 0 0 1 0 2z m-385-498c-18-15-44-21-76-21-19 0-33 1-42 2v161c13 2 31 4 50 4 31 0 51-6 67-18 17-13 28-33 28-62 0-31-12-53-27-66z m121-22c-49 0-77 36-77 83 0 49 31 86 80 86 50 0 78-38 78-83 0-54-33-86-81-86z m189 30c11 0 24 3 31 6l5-29c-6-4-22-7-42-7-56 0-86 35-86 82 0 56 40 87 90 87 19 0 34-4 40-7l-7-30c-8 3-18 6-31 6-30 0-53-17-53-54 0-33 20-54 53-54z m-435 173v466h337v-150c0-8 7-14 15-14h129l0-302h-481z m203 293h106c5 0 10 5 10 10 0 5-5 10-10 10h-106c-5 0-10-5-10-10 0-5 5-10 10-10z m158-57h-264c-5 0-9-5-9-10 0-5 4-10 9-10h264c5 0 10 5 10 10 0 5-5 10-10 10z m-236 38l9 37c2 8 3 16 5 24h0c1-8 2-16 4-24l8-37h16l20 77h-14l-8-35c-2-9-4-18-5-26h-1c-1 8-2 17-4 26l-8 35h-15l-8-35c-2-9-5-18-6-27h0c-1 8-3 18-5 27l-7 35h-15l19-77h15v0z m236-115h-264c-5 0-9-4-9-10 0-5 4-9 9-9h264c5 0 10 4 10 9 0 6-5 10-10 10z m0-79h-264c-5 0-9-4-9-9 0-6 4-10 9-10h264c5 0 10 4 10 10 0 5-5 9-10 9z" horiz-adv-x="1000" />
<glyph glyph-name="direction-top" unicode="&#xe87d;" d="m122 357l0-7c0-205 167-374 371-378 101-2 197 36 269 106 73 70 114 164 116 265l0 7v0c0 205-167 374-371 378-208 4-381-163-385-371z m729-7v-6c-2-94-40-181-108-246-67-65-156-100-249-99-190 4-345 161-345 351v6c4 194 164 348 357 345 190-4 345-161 345-351z m-357 189l-182-176c-6-5-6-14-1-19 6-5 14-6 19-1l159 153-6-325c0 0 0 0 0 0 0-7 6-13 14-13 7-1 13 5 13 13l6 325 153-159c5-5 14-5 19 0 3 3 4 6 4 10 0 3-1 6-3 9l-195 183 0 0z" horiz-adv-x="1000" />
<glyph glyph-name="direction-right" unicode="&#xe87e;" d="m507 728l-7 0c-205 0-374-167-378-371-2-101 36-196 106-269 70-73 164-114 265-116l7 0h0c205 0 374 167 378 371 4 209-163 381-371 385z m-7-729h-6c-94 2-181 40-246 108-65 67-100 156-99 249 4 190 161 345 351 345h6c194-4 348-164 345-357-4-190-161-345-351-345z m189 357l-176 182c-5 6-14 6-19 1-5-5-6-14-1-19l153-159-325 6c0 0 0 0 0 0-7 0-13-6-13-13-1-8 5-14 13-14l325-6-159-153c-5-5-5-14 0-19 3-3 6-4 10-4 3 0 6 1 9 3l183 195 0 0z" horiz-adv-x="1000" />
<glyph glyph-name="direction-left" unicode="&#xe87f;" d="m493-28l7 0c205 0 374 167 378 371 2 101-36 197-106 269-70 73-164 114-265 116l-7 0h0c-205 0-374-167-378-371-3-208 163-381 371-385z m7 729h6c94-2 182-40 247-108 65-67 99-156 98-249-4-190-161-345-351-345h-6c-194 4-348 164-345 357 4 190 161 345 351 345z m-188-357l175-182c5-6 14-6 19-1 6 6 6 14 1 19l-153 159 325-6c0 0 0 0 0 0 7 0 14 6 14 14 0 7-6 13-14 13l-325 6 159 153c5 5 5 14 0 19-2 3-6 4-10 4-3 0-6-1-9-3l-182-195 0 0z" horiz-adv-x="1000" />
<glyph glyph-name="direction-down" unicode="&#xe880;" d="m878 343l0 7c0 205-167 374-371 378-101 2-196-36-269-106-73-70-114-164-116-265l0-7v0c0-205 167-374 371-378 209-4 381 163 385 371z m-729 7v6c2 94 40 182 108 247 67 65 156 99 249 98 190-4 345-161 345-351v-6c-4-194-164-348-357-345-190 4-345 161-345 351z m357-188l182 175c6 5 6 14 1 19-5 6-14 6-19 1l-159-153 6 325c0 0 0 0 0 0 0 7-6 14-13 14-8 0-14-6-14-14l-6-325-153 159c-5 5-14 5-19 0-3-2-4-6-4-10 0-3 1-6 3-9l195-182 0 0z" horiz-adv-x="1000" />
<glyph glyph-name="debate" unicode="&#xe881;" d="m363 502v-437h318l125-125h26v125h94v437h-563z m532-406h-94v-107l-108 107h-298v375h500v-375z m-532 227l-16 30v-31l-28 1-125-125h-26v125h-94v437h563l-1-237h-31l1 206h-500v-375h93v-107l108 107 40-1z m0 31" horiz-adv-x="1000" />
<glyph glyph-name="dashboard" unicode="&#xe882;" d="m879 301c0 206-169 373-378 374 0 0-1 0-1 0l0 0 0 0c-209 0-379-167-379-374 0 0 0 0 0 0 0-1 0-1 0-1 0-108 47-205 121-274l1-1 62 62-19 19-43-42c-27 29-49 60-64 96-18 39-28 80-30 122h53v27h-54c1 44 11 87 28 127 15 37 37 70 64 100l47-47 9 9 9 9 0 0 1 1-47 47c30 28 65 51 104 67 39 16 81 24 123 25v-62h27v63c43-2 85-9 124-26 39-16 73-39 104-67l-47-47 1-1 0 0 8-9 10-9 47 47c27-29 49-63 64-99 18-41 27-83 28-127h-54v-28h53c-2-42-12-83-30-122-16-35-37-67-64-96l-43 42-19-19 62-62 4 5c73 68 118 164 118 270 0 0 0 1 0 1 0 0 0 0 0 0z m-405 51c-2-1-3-3-4-4-10-8-16-20-16-33 0-25 21-45 46-45 14 0 27 7 35 17 1 1 2 1 2 2l138 159-17 19-184-115z" horiz-adv-x="1000" />
<glyph glyph-name="compose" unicode="&#xe883;" d="m719 69h-531v500h406l31 31h-469v-562h594v437l-31-31v-375z m-255 226l-19 19 335 335-22 22-352-352v-63h63l352 352-22 22-335-335z m404 398l-25 25c-5 4-12 7-19 7s-15-3-20-7l-23-24 0 0 22-22 41-41 24 23c4 5 7 12 7 20 0 7-3 14-7 19z" horiz-adv-x="1000" />
<glyph glyph-name="column-chart" unicode="&#xe884;" d="m866-2h-732c-7 0-14-6-14-14 0-7 7-14 14-14h732c8 0 14 7 14 14 0 8-6 14-14 14z m-644 64h187 182 184c7 0 13 6 13 13v458c0 8-6 14-13 14h-170v169c0 7-6 14-14 14h-182c-8 0-14-7-14-14v-352h-173c-8 0-14-6-14-14v-274c0-8 6-14 14-14z m383 457h156v-430h-156v430z m-183-169v352h156v-169-444h-156v261z m-186-14h159v-247h-159v247z" horiz-adv-x="1000" />
<glyph glyph-name="cog" unicode="&#xe885;" d="m500-26c-17 0-34 1-51 3-9 2-17 7-23 14-5 7-6 17-4 26 2 10 1 22-3 32-8 18-27 30-47 30-7 0-13-2-20-5-10-4-18-11-23-21-5-7-12-13-21-15-9-2-18 0-26 5-31 23-59 50-82 81-6 7-8 16-6 25 1 9 7 17 14 21 10 6 17 15 21 25 5 12 4 26-1 39-6 12-16 21-28 26-10 4-21 4-31 2-9-3-18-1-26 4-7 5-13 13-14 21-6 38-7 77-1 116 1 9 6 16 13 22 7 5 17 6 25 4 11-2 22-1 32 4 12 5 22 15 26 28 5 12 5 26-1 38-4 10-11 18-20 23-7 5-13 12-15 21-2 9 0 18 6 25 22 32 49 59 80 83 7 5 16 7 25 6 8-2 16-7 21-15 6-9 14-16 24-19 6-3 12-4 18-4 21 0 40 13 47 33 4 9 5 20 2 30-2 8 0 18 5 25 4 7 12 13 21 14 37 6 77 7 115 2 8-1 16-6 21-14 6-7 7-16 6-25-3-10-1-21 3-31 8-18 26-30 46-30 7 0 14 2 21 5 9 4 17 11 22 20 5 7 12 13 21 15 9 1 18-1 25-6 32-22 59-49 83-79 5-7 7-17 6-25-2-9-7-17-15-22-9-6-15-14-19-24-10-26 3-55 29-65 9-4 20-4 30-2 9 2 18 1 26-4 7-5 12-13 14-22 6-37 7-76 2-114-1-9-6-17-14-22-5-4-11-6-18-6l0 0c-2 0-5 0-7 0-11 3-22 2-31-3-26-11-37-41-26-66 4-10 11-18 21-23 7-5 13-12 15-21 2-9 0-18-5-25-22-32-49-60-80-84-8-5-17-7-26-6-9 2-16 7-21 15-6 10-15 17-25 21-5 2-12 3-18 3-20 0-39-13-47-33-4-9-4-20-1-31 2-8 1-18-4-25-5-8-13-13-22-15-21-3-42-5-64-5z m-128 128c30 0 56-17 68-44 7-15 8-31 5-47-1-2-1-5 1-7 1-2 3-3 6-3 36-5 72-5 108 1 3 1 5 2 6 4 1 2 2 5 1 7-4 16-3 31 2 46 11 28 39 47 69 47 9 0 18-1 27-5 15-5 27-16 36-30 1-2 3-3 6-4 2 0 5 1 6 2 29 22 55 48 76 78 1 2 2 4 1 7-1 2-2 4-4 6-14 7-24 19-30 33-17 37 0 81 37 98 15 6 31 8 46 4 1 0 1 0 2 0l0 0c2 0 4 1 5 2 2 1 3 3 4 6 5 36 4 72-2 108-1 2-2 4-4 5-2 2-5 2-7 1-15-3-31-2-45 3-38 15-57 58-42 96 5 14 15 26 29 35 2 1 3 3 4 6 0 2-1 5-2 6-22 29-48 54-77 75-2 2-5 2-7 2-3-1-5-2-6-4-8-13-19-23-33-30-9-4-20-6-30-6-29 0-56 17-68 44-6 14-8 30-4 45 0 2 0 5-2 7-1 2-3 3-6 4-35 5-72 4-107-2-2 0-5-2-6-4-1-2-2-4-1-7 4-14 3-30-3-44-11-28-38-47-69-47-9 0-18 1-26 5-15 5-27 15-36 29-1 2-3 3-5 3-3 1-5 0-7-1-29-22-54-48-75-77-2-2-2-5-2-7 1-3 2-5 4-6 13-8 24-19 30-33 8-18 8-38 1-57-7-18-21-33-39-41-14-6-30-8-46-4-2 0-5 0-7-2-2-1-3-3-3-6-5-36-5-72 1-108 1-2 2-4 4-5 2-2 5-2 7-2 15 4 31 4 45-2 19-7 33-21 41-39 8-18 9-38 2-57-6-14-16-27-30-35-2-2-4-4-4-6-1-3 0-5 1-7 22-29 48-55 78-76 2-1 4-2 7-1 2 1 4 2 6 4 7 14 19 24 33 31 10 4 20 6 30 6z m128 120c-50 0-96 30-116 76-29 64 0 140 64 169 17 7 34 11 52 11 50 0 96-30 117-76 28-64-1-140-65-168-17-8-34-12-52-12z m0 232c-15 0-29-3-42-9-53-23-76-85-53-137 17-38 54-62 95-62 15 0 29 3 42 9 53 23 77 85 53 137-17 38-54 62-95 62z" horiz-adv-x="1000" />
<glyph glyph-name="clip" unicode="&#xe887;" d="m847 658c-92 91-239 91-330 0l-379-374c-71-71-71-186 0-257 71-71 186-71 257 0l378 374c51 51 51 133 0 183-50 51-133 51-183 0l-285-284c-10-10-10-27 0-37 11-10 27-10 37 0l285 285c30 30 79 30 110 0 30-31 30-80 0-110l-379-374c-50-51-132-51-183 0-51 50-51 133 0 183l375 370c70 71 185 71 256 0 71-71 71-185 0-256l-280-281c-11-10-11-27 0-37 10-10 26-10 36 0l285 285c91 91 91 239 0 330z" horiz-adv-x="1000" />
<glyph glyph-name="circle" unicode="&#xe888;" d="m235 85c146-146 384-146 530 0 146 146 146 384 0 530-146 146-384 146-530 0-145-146-145-384 0-530z m29 501c130 130 342 130 472 0 130-130 130-342 0-472-130-130-342-130-472 0-129 130-129 342 0 472z" horiz-adv-x="1000" />
<glyph glyph-name="chevron-up-sign" unicode="&#xe889;" d="m113 350c0-214 173-388 387-388 214 0 388 174 388 388 0 214-174 388-388 388-214 0-387-174-387-388z m747 0c0-198-162-360-360-360-198 0-360 162-360 360 0 198 162 360 360 360 198 0 360-162 360-360z m-553-102c5-5 14-5 19 0l174 174 174-174c5-5 14-5 19 0 3 3 4 7 4 10 0 4-1 7-4 10l-193 194-193-194c-6-5-6-14 0-20z" horiz-adv-x="1000" />
<glyph glyph-name="chevron-up" unicode="&#xe88a;" d="m775 163l38 40-313 335-312-335 37-40 275 293 275-293z" horiz-adv-x="1000" />
<glyph glyph-name="chevron-right-sign" unicode="&#xe88b;" d="m500 738c-214 0-388-174-388-388 0-214 174-388 388-388 214 0 388 174 388 388 0 214-174 388-388 388z m0-748c-198 0-360 162-360 360 0 198 162 360 360 360 198 0 360-162 360-360 0-198-162-360-360-360z m-102 553c-5-5-5-14 0-19l174-174-174-174c-5-5-5-14 0-19 3-3 7-4 10-4 4 0 7 1 10 4l194 193-194 193c-5 6-14 6-20 0z" horiz-adv-x="1000" />
<glyph glyph-name="chevron-right" unicode="&#xe88c;" d="m313 625l40 38 335-313-335-312-40 37 293 275-293 275z" horiz-adv-x="1000" />
<glyph glyph-name="chevron-left-sign" unicode="&#xe88d;" d="m500-38c214 0 388 174 388 388 0 214-174 388-388 388-214 0-388-174-388-388 0-214 174-388 388-388z m0 748c198 0 360-162 360-360 0-198-162-360-360-360-198 0-360 162-360 360 0 198 162 360 360 360z m102-553c5 5 5 14 0 19l-174 174 174 174c5 5 5 14 0 19-3 3-7 4-10 4-4 0-7-1-10-4l-193-193 193-193c5-6 14-6 20 0z" horiz-adv-x="1000" />
<glyph glyph-name="chevron-left" unicode="&#xe88e;" d="m688 625l-41 38-334-313 334-312 41 37-294 275 294 275z" horiz-adv-x="1000" />
<glyph glyph-name="chevron-down-sign" unicode="&#xe88f;" d="m888 350c0 214-174 388-388 388-214 0-387-174-387-388 0-214 173-388 387-388 214 0 388 174 388 388z m-748 0c0 198 162 360 360 360 198 0 360-162 360-360 0-198-162-360-360-360-198 0-360 162-360 360z m553 102c-5 5-14 5-19 0l-174-174-174 174c-5 5-14 5-19 0-3-3-4-7-4-10 0-4 1-7 4-10l193-193 193 193c6 5 6 14 0 20z" horiz-adv-x="1000" />
<glyph glyph-name="chevron-down" unicode="&#xe890;" d="m775 538l38-41-313-334-312 334 37 41 275-294 275 294z" horiz-adv-x="1000" />
<glyph glyph-name="campaign" unicode="&#xe891;" d="m740 687c-2 4-7 7-12 7h-325c1 2 2 4 2 7 0 19-16 34-34 34-19 0-34-15-34-34 0-14 8-26 21-31v-258-392h-77c-7 0-13-6-13-13 0-8 6-14 13-14h179c8 0 13 6 13 14 0 7-5 13-13 13h-76v379h344c5 0 10 3 12 7 2 4 2 9-1 14l-84 126 84 127c3 4 3 9 1 14z m-377 14c0 4 4 7 8 7 4 0 7-3 7-7 0-8-15-8-15 0z m265-147c-3-5-3-11 0-15l75-113h-319v241h319l-75-113z" horiz-adv-x="1000" />
<glyph glyph-name="bulb-on" unicode="&#xe892;" d="m495 567c-115 0-209-94-209-209 0-64 30-124 81-164 1-1 2-2 3-3 1-1 28-19 28-54 0 0 0-1 0-1 0-1 0-1 0-2l34-157c2-6 7-10 13-10h101c6 0 11 4 13 10l34 157c0 1 0 1 0 2 0 0 0 1 0 1 0 35 27 53 28 54 1 0 2 1 3 3 51 40 81 100 81 164 0 115-94 209-210 209z m40-574h-79l-3 13h85l-3-13z m9 40h-97l-3 13h103l-3-13z m9 39h-115l-11 52h137l-11-52z m52 140c-1 0-2-1-3-2-8-7-29-27-34-60h-59v183c0 15 11 26 26 26 7 0 13 6 13 13 0 8-6 14-13 14-16 0-30-8-40-19 0 1-1 2-2 3-10 10-23 16-37 16 0 0 0 0 0 0-7 0-13-6-13-14s6-13 13-13c0 0 0 0 0 0 0 0 0 0 0 0 7 0 14-2 19-7 5-5 7-12 7-19v-183h-59c-5 33-25 52-34 60-1 1-2 2-3 2-47 36-73 89-73 146 0 101 82 183 183 183 100 0 183-82 183-183-1-57-27-110-74-146z m-105 406c7 0 13 6 13 14v88c0 7-6 13-13 13-7 0-13-6-13-13v-88c0-8 6-14 13-14z m-196-73c3-3 6-4 9-4 4 0 7 1 9 4 6 5 6 13 0 18l-62 63c-5 5-13 5-18 0-5-5-5-14 0-19l62-62z m-55-178c0 7-6 13-13 13h-88c-8 0-13-6-13-13 0-7 5-13 13-13h88c7 0 13 6 13 13z m55-177l-62-63c-5-5-5-13 0-18 2-3 6-4 9-4 3 0 7 1 9 4l63 62c5 5 5 14 0 19-5 5-14 5-19 0z m392-12c-5 5-13 6-18 0-6-5-6-13 0-18l62-63c2-2 6-3 9-3 4 0 7 1 9 3 6 6 6 14 0 19l-62 62z m156 202l-88 0c-7 0-13-5-13-13 0-7 6-13 13-13l88 0c8 0 14 6 14 13 0 7-6 13-14 13z m-165 161c3 0 7 1 9 4l63 62c5 5 5 14 0 19-5 5-14 5-19 0l-62-63c-6-5-6-13 0-18 2-3 6-4 9-4z" horiz-adv-x="1000" />
<glyph glyph-name="bulb-off" unicode="&#xe893;" d="m500 731c-146 0-265-119-265-266 0-81 37-157 102-208 1-2 2-3 4-4 0 0 35-24 35-68 0-1 0-1 1-2 0 0-1-1-1-2l44-199c1-7 8-13 16-13h128c8 0 14 6 16 13l44 199c0 1-1 2-1 2 0 1 1 1 1 2 0 44 34 67 35 68 1 1 2 2 3 4 66 51 104 126 104 208 0 147-120 266-266 266z m51-728h-102l-3 16h108l-3-16z m10 49h-122l-4 17h130l-4-17z m11 50h-144l-15 66h174l-15-66z m67 179c-1-1-2-3-3-4-11-9-38-34-44-75h-75v232 0c0 9 3 17 9 23 7 6 15 10 24 10 9 0 16 8 16 17 0 9-7 16-16 16-18 0-35-7-47-19-1-1-2-3-3-4-1 1-2 3-3 4-12 12-29 19-46 19-1 0-1 0-1 0-9 0-16-7-16-17 0-9 7-16 16-16l0 0c0 0 0 0 1 0 8 0 17-4 23-10 6-6 9-14 9-23v-232h-75c-6 41-33 66-44 75-1 1-2 2-3 3-59 45-93 112-93 185 0 128 104 233 232 233 128 0 232-105 232-233 0-72-34-140-93-184z" horiz-adv-x="1000" />
<glyph glyph-name="bug" unicode="&#xe894;" d="m866 319c-6 6-13 9-21 9h-105v137l81 81c6 6 9 13 9 21 0 8-3 15-9 21-6 6-13 9-21 9s-16-3-21-9l-81-81h-395l-81 81c-6 6-13 9-22 9-8 0-15-3-21-9-6-6-8-13-8-21 0-8 2-15 8-21l81-81v-137h-104c-9 0-16-3-21-9-6-6-9-13-9-21 0-8 3-16 9-21 5-6 12-9 21-9h104c0-50 9-93 28-129l-95-106c-5-6-8-13-7-22 0-8 3-15 9-20 6-5 13-8 20-8 9 0 17 3 23 10l86 97 7-7c4-4 11-9 20-15 9-6 19-12 31-18 11-6 25-11 41-16 15-4 31-6 47-6v419h60v-419c15 0 30 2 45 6 16 4 28 9 39 14 10 5 20 10 30 17 10 6 17 11 20 13 3 3 5 5 7 6l93-92c5-6 12-9 21-9 8 0 15 3 21 9 6 6 9 13 9 21s-3 15-9 21l-98 98c21 37 32 82 32 136h105c8 0 15 3 21 9 6 5 8 13 8 21s-2 15-8 21z m-260 354c-29 29-64 44-106 44-41 0-77-15-106-44-29-29-44-64-44-106h300c0 42-15 77-44 106z" horiz-adv-x="1000" />
<glyph glyph-name="bookmark-label" unicode="&#xe895;" d="m730 732h-460c-8 0-14-6-14-14v-736c0-6 4-11 9-13 5-2 11-1 15 3l46 46c0 0 0 0 0 0l174 175 220-221c3-2 6-4 10-4 2 0 4 1 5 1 5 2 9 7 9 13v736c0 8-6 14-14 14z m-14-717l-18 19v86c0 8-6 14-14 14-8 0-14-6-14-14v-59l-160 161c-3 2-6 4-10 4-3 0-7-2-10-4l-160-161v59c0 8-6 14-14 14-8 0-14-6-14-14v-86l-18-19v689h432v-689h0z m-400 551c8 0 14 6 14 14v92c0 8-6 14-14 14-8 0-14-6-14-14v-92c0-8 7-14 14-14z m0-184c8 0 14 6 14 14v92c0 8-6 14-14 14-8 0-14-7-14-14v-92c0-8 7-14 14-14z m0-184c8 0 14 6 14 14v92c0 8-6 14-14 14-8 0-14-7-14-14v-92c0-8 7-14 14-14z m368 368c8 0 14 6 14 14v92c0 8-6 14-14 14-8 0-14-6-14-14v-92c0-8 6-14 14-14z m0-184c8 0 14 6 14 14v92c0 8-6 14-14 14-8 0-14-7-14-14v-92c0-8 6-14 14-14z m0-184c8 0 14 7 14 14v92c0 8-6 14-14 14-8 0-14-6-14-14v-92c0-7 6-14 14-14z" horiz-adv-x="1000" />
<glyph glyph-name="book" unicode="&#xe896;" d="m771 729h-512c-33 0-60-27-60-60v-48c-17-2-31-16-31-33 0-18 14-32 31-34v-38c-17-2-31-16-31-34 0-17 14-31 31-33v-41c-17-1-31-16-31-33 0-18 14-32 31-34v-38c-17-2-31-16-31-33 0-18 14-32 31-34v-38c-17-1-31-15-31-33 0-17 14-32 31-33v-101c0-33 27-60 60-60h512c34 0 61 27 61 60v638c0 33-27 60-61 60z m-572-580c-8 1-13 8-13 16 0 8 5 15 13 16v-32z m0 104c-8 2-13 9-13 17 0 8 5 14 13 16v-33z m0 106c-8 1-13 8-13 16 0 8 5 15 13 16v-32z m0 107c-8 2-13 8-13 16s5 15 13 17v-33z m0 105c-8 2-13 9-13 17 0 8 5 14 13 16v-33z m598-540c0-14-11-25-26-25h-512c-14 0-26 11-26 25v100h26c3-11 13-20 26-20 14 0 26 12 26 27s-12 27-26 27c-11 0-21-7-25-16h-27v87h26c3-12 13-20 26-20 14 0 26 12 26 27s-12 26-26 26c-11 0-21-6-25-16h-27v88h27c3-10 13-17 25-17 14 0 26 11 26 26 0 15-12 27-26 27-12 0-22-8-26-19h-26v91h26c3-12 13-20 26-20 14 0 26 12 26 27s-12 26-26 26c-11 0-21-6-25-16h-27v88h25c2-13 13-24 27-24 14 0 26 12 26 27s-12 27-26 27c-10 0-18-5-23-13h-29v98c0 14 12 26 26 26h512c15 0 26-12 26-26v-638z m-65 543c0-7-6-13-13-13h-339c-7 0-13 6-13 13 0 7 6 13 13 13h339c7 0 13-6 13-13z m-42-105c0-7-5-13-12-13h-256c-7 0-13 6-13 13 0 7 6 13 13 13h256c7 0 12-6 12-13z m0-106c0-7-5-13-12-13h-256c-7 0-13 6-13 13 0 7 6 13 13 13h256c7 0 12-6 12-13z m0-103c0-8-5-13-12-13h-256c-7 0-13 5-13 13 0 7 6 13 13 13h256c7 0 12-6 12-13z m0-110c0-7-5-13-12-13h-256c-7 0-13 6-13 13 0 7 6 13 13 13h256c7 0 12-6 12-13z" horiz-adv-x="1000" />
<glyph glyph-name="bold" unicode="&#xe897;" d="m626 379v2c81 32 119 91 119 155 0 67-36 117-87 144-53 32-115 41-215 41 0 0-170-3-214-20v-719c37 2 98-3 179-3 145 0 234 24 287 66 45 35 76 88 76 155 0 94-62 158-145 179z m-233 217c13 3 33 5 70 5 75 0 117-29 117-84 0-54-45-90-133-90h-54v169z m64-496c-28 0-48 0-64 3v206h56c82 0 148-29 148-103 0-77-66-106-140-106z" horiz-adv-x="1000" />
<glyph glyph-name="bell" unicode="&#xe898;" d="m746 409c0 190-103 255-199 270 0 1 0 2 0 3 0 24-21 43-47 43-26 0-46-19-46-43 0-1 0-2 0-3-96-15-199-80-199-271 0-222-56-246-130-308h750c-74 63-129 87-129 309z m-537-278c17 18 32 36 45 62 23 50 34 116 34 216 0 90 24 157 72 197 45 38 101 46 140 46s96-8 140-46c48-40 73-106 73-197 0-163 29-229 78-278h-582z m291-156c53 0 96 39 101 84h-202c6-45 49-84 101-84z" horiz-adv-x="1000" />
<glyph glyph-name="archive" unicode="&#xe899;" d="m340 538h-204c-6 0-10-5-10-11v-482c0-6 4-11 10-11h204c6 0 10 5 10 11v482c0 6-4 11-10 11z m-11-482h-182v460h182v-460z m438 464c-1 6-7 10-13 8l-150-36c-1 0-2 0-3-1v177c0 6-5 11-11 11h-203c-6 0-11-5-11-11v-623c0-6 5-11 11-11h203c6 0 11 5 11 11v414l102-428c1-3 2-5 5-7 1-1 3-1 5-1 1 0 2 0 3 0l150 36c6 1 10 7 8 13l-107 448z m-188-464h-181v601h181v-601z m142-10l-102 428 130 31 102-428-130-31z m-483 164c38 0 70 31 70 69 0 39-32 70-70 70s-70-31-70-70c0-38 32-69 70-69z m0 118c26 0 48-22 48-49s-22-48-48-48-48 22-48 48 21 49 48 49z m-59-263h118c6 0 11 5 11 11v44c0 6-5 11-11 11h-118c-6 0-11-5-11-11v-44c0-6 5-11 11-11z m11 45h96v-23h-96v23z m-11 304h118c6 0 11 5 11 11v44c0 6-5 11-11 11h-118c-6 0-11-5-11-11v-44c0-6 5-11 11-11z m11 45h96v-23h-96v23z m298-201c39 0 70 32 70 70 0 38-31 70-70 70-38 0-69-32-69-70 0-38 31-70 69-70z m0 118c27 0 49-21 49-48 0-27-22-48-49-48s-48 21-48 48c0 27 22 48 48 48z m-59-311h118c6 0 11 5 11 11v44c0 6-5 11-11 11h-118c-6 0-10-5-10-11v-44c0-6 4-11 10-11z m11 45h96v-23h-96v23z m-11 459h118c6 0 11 5 11 11v44c0 6-5 11-11 11h-118c-6 0-10-5-10-11v-44c0-6 4-11 10-11z m11 44h96v-22h-96v22z m284-290c-13-3-24-10-31-22-7-11-9-24-6-37 6-22 25-37 48-37 4 0 8 0 11 1 27 6 43 33 37 59-5 22-26 38-48 38-4 0-8-1-11-2z m38-41c2-7 0-14-3-21-4-6-10-10-18-12-2-1-4-1-6-1-12 0-24 9-27 21-1 7 0 15 4 21 4 6 10 11 17 12 2 1 4 1 6 1 13 0 24-9 27-21z m-43-162c-1-2-2-5-1-8l10-43c1-2 2-5 5-6 2-1 4-2 6-2 0 0 1 0 2 0l87 21c6 2 10 7 8 13l-10 43c-1 6-7 10-13 8l-87-21c-3 0-5-2-7-5z m89 3l5-22-66-16-6 22 67 16z m-76 358l-87-20c-3-1-5-3-7-5-1-3-2-6-1-8l10-43c1-5 6-9 11-9 0 0 1 0 2 1l87 20c6 2 10 8 8 13l-10 43c-1 6-7 10-13 8z m-66-61l-6 22 67 16 5-22-66-16z" horiz-adv-x="1000" />
<glyph glyph-name="twitter" unicode="&#xe89a;" d="m743 505c-4 3-9 3-13 0-3-2-7-4-11-5 15 19 15 31 15 34-1 4-3 8-7 10-3 1-8 1-11-1-21-15-42-18-54-19-19 19-45 29-72 29-59 0-106-48-106-107 0-4 0-8 0-13-98 3-177 95-178 96-2 3-6 4-9 4-4 0-7-2-9-5-25-43-15-83 2-112-3 2-7 2-10 1-4-2-6-6-6-10-1-45 19-72 40-88-1 0-3-1-4-2-3-3-4-7-2-11 14-46 48-64 71-70-27-19-60-24-86-24-16 0-27 2-27 2-6 1-11-2-13-7-2-4 0-10 4-13 51-38 113-46 155-46 34 0 58 4 59 5 220 51 228 248 228 284 41 38 47 52 48 56 2 5 0 10-4 12z m-63-55c-3-2-4-6-4-9 0-2 12-215-210-266 0 0-22-5-54-5-29 0-67 4-104 20 34 2 75 13 105 45 3 4 3 9 2 13-2 4-6 6-11 6-2 0-46 1-68 42 10 0 19 1 26 4 5 2 7 7 7 12-1 4-4 8-9 9-2 1-53 12-62 66 8-3 17-5 27-4 4 1 8 4 9 8 1 5 0 9-4 12-2 2-51 44-29 99 28-28 105-96 197-91 4 0 7 2 9 5 2 3 2 6 2 9-2 7-3 14-3 21 0 46 38 84 84 84 23 0 44-9 60-25 2-2 5-3 8-3l1 0c9 0 22 1 36 5-4-5-11-10-19-16-3-3-5-9-3-13 2-5 6-8 11-7 2 0 10 0 20 2-6-6-14-14-24-23z m-180-477c-208 0-377 169-377 377 0 208 169 377 377 377 208 0 377-169 377-377 0-208-169-377-377-377z m0 730c-194 0-353-159-353-353 0-194 159-353 353-353 194 0 353 159 353 353 0 194-159 353-353 353z" horiz-adv-x="1000" />
<glyph glyph-name="redditt" unicode="&#xe89b;" d="m878 357c0 46-37 84-84 84-21 0-42-9-57-24-57 38-135 62-220 65l47 148 126-30c0-1 0-1 0-2 0-38 31-68 68-68 38 0 69 30 69 68 0 38-31 69-69 69-29 0-53-19-63-44l-137 32c-6 1-12-2-14-8l-52-165c-89-1-170-25-230-64-15 14-35 23-56 23-47 0-84-38-84-84 0-30 16-57 41-72-1-9-2-18-2-27 0-124 151-224 337-224 187 0 338 100 338 224 0 9-1 17-2 25 27 15 44 43 44 74z m-120 286c25 0 45-20 45-45 0-25-20-45-45-45-24 0-45 20-45 45 0 25 21 45 45 45z m-613-286c0 33 27 60 61 60 13 0 26-4 37-13-35-27-61-59-73-95-15 11-25 29-25 48z m353-300c-173 0-314 90-314 201 0 111 141 201 314 201 174 0 315-90 315-201 0-111-141-201-315-201z m330 250c-12 36-37 69-72 96 11 9 24 14 38 14 34 0 61-27 61-60 0-21-11-39-27-50z m-393-7c0 27-22 49-50 49-27 0-50-22-50-49 0-28 23-50 50-50 28 0 50 22 50 50z m180 49c-27 0-50-22-50-49 0-28 23-50 50-50 27 0 50 22 50 50 0 27-23 49-50 49z m-11-181c-20-20-54-30-104-30 0 0 0 0 0 0 0 0 0 0 0 0-50 0-84 10-104 30-5 5-12 5-17 0-4-4-4-12 0-16 25-25 65-38 121-38 0 0 0 1 0 1 0 0 0-1 0-1 56 0 96 13 121 38 5 4 5 12 0 16s-12 5-17 0z" horiz-adv-x="1000" />
<glyph glyph-name="block-sign" unicode="&#xe89c;" d="m500 733c-109 0-207-47-277-120-1-1-1-1-2-1-1-1-1-2-1-3-64-68-102-159-102-259 0-211 171-383 382-383 211 0 383 172 383 383 0 211-172 383-383 383z m-321-383c0 73 25 140 66 194l449-449c-54-41-121-66-194-66-177 0-321 144-321 321z m560-213l-452 452c57 51 131 82 213 82 177 0 321-144 321-321 0-82-31-156-82-213z" horiz-adv-x="1000" />
<glyph glyph-name="no-entry" unicode="&#xe89d;" d="m500-31c-210 0-381 171-381 381s171 381 381 381c210 0 381-171 381-381s-171-381-381-381z m0 737c-196 0-356-159-356-356s160-356 356-356c197 0 356 160 356 356s-159 356-356 356z m-147-344h294v-24h-294v24z" horiz-adv-x="1000" />
</font>
</defs>
</svg>
